<!-- by TradingView --><svg width="56" height="56" viewBox="0 0 56 56" xmlns="http://www.w3.org/2000/svg"><path fill="#0480CA" d="M0 0h56v56H0z"/><path d="M22 37V19h-2.82L15 21.96v3.26l4-2.5V37h3Zm7.67-1.06c1 .7 2.2 1.06 3.61 1.06 1.4 0 2.6-.35 3.6-1.06 1-.71 1.78-1.74 2.31-3.08.54-1.36.81-2.98.81-4.89 0-1.9-.27-3.51-.8-4.85a6.6 6.6 0 0 0-2.32-3.06c-1-.7-2.2-1.06-3.6-1.06s-2.6.35-3.6 1.06c-1 .7-1.77 1.72-2.31 3.06-.53 1.33-.8 2.95-.81 4.85 0 1.9.27 3.53.8 4.88a6.78 6.78 0 0 0 2.3 3.09Zm6.2-3.21c-.64 1.07-1.5 1.6-2.59 1.6-.73 0-1.35-.23-1.88-.7a4.7 4.7 0 0 1-1.23-2.15 12.2 12.2 0 0 1-.42-3.51c.01-2.08.33-3.65.96-4.72.63-1.08 1.49-1.62 2.57-1.62.72 0 1.35.24 1.87.72.53.48.94 1.19 1.23 2.13.29.94.43 2.1.43 3.49 0 2.1-.31 3.68-.95 4.76Z" fill="#fff"/></svg>