<svg width="44" height="inherit" viewBox="0 0 44 44" fill="#001EFF" xmlns="http://www.w3.org/2000/svg">
    <path d="M22 44C17.6488 44 13.3953 42.7097 9.77746 40.2923C6.15958 37.8749 3.33979 34.439 1.67466 30.419C0.00953225 26.3991 -0.426141 21.9756 0.422734 17.708C1.27161 13.4404 3.36691 9.52042 6.44366 6.44366C9.52042 3.36691 13.4404 1.27161 17.708 0.422734C21.9756 -0.426141 26.3991 0.00953225 30.419 1.67466C34.439 3.33979 37.8749 6.15958 40.2923 9.77746C42.7097 13.3953 44 17.6488 44 22C44 27.8348 41.6822 33.4306 37.5564 37.5564C33.4306 41.6822 27.8348 44 22 44Z" fill="#001EFF"/>
    <path d="M35.5959 20.5368C36.0909 20.5368 37.2019 20.6468 37.7959 20.7018C37.7959 20.3388 37.7299 19.9758 37.6749 19.6018C37.2899 17.2258 34.8369 13.0898 28.8749 13.2218C19.9869 13.4308 20.2399 21.7028 16.4229 22.7808C13.7939 23.5288 13.1229 21.9338 12.9689 21.0428C13.2326 21.0599 13.4971 21.0599 13.7609 21.0428C17.0609 20.7128 17.6879 15.5428 17.6879 15.5428C17.6879 15.5428 14.1569 15.6528 13.6619 15.6858C13.0591 15.6897 12.4757 15.8988 12.0078 16.2788C11.5399 16.6587 11.2154 17.1867 11.0879 17.7758C10.9427 17.196 10.6175 16.6771 10.159 16.2937C9.70046 15.9103 9.13221 15.6821 8.53586 15.6418L4.63086 15.3668C4.63086 15.3668 4.92786 20.3718 8.18386 20.8998C8.73386 20.9878 9.43786 21.0208 9.43786 21.0208C9.32554 22.365 9.48909 23.718 9.91848 24.9967C10.3479 26.2754 11.034 27.4529 11.9349 28.4568C12.3969 27.8298 12.8039 27.3018 13.0349 27.1038C13.5517 26.4592 14.2038 25.9359 14.9451 25.571C15.6864 25.206 16.4988 25.0083 17.3249 24.9918C18.4803 25.0166 19.5993 25.4011 20.5259 26.0918L21.6259 26.9498L20.8999 28.1268C20.4482 28.9557 19.9524 29.7599 19.4149 30.5358C19.1269 30.9349 18.7989 31.3035 18.4359 31.6358C19.9704 31.9384 21.526 32.1222 23.0889 32.1858C24.4309 24.1998 28.4019 20.5368 35.5959 20.5368ZM27.6649 16.3678C28.927 16.735 30.0328 17.5083 30.8109 18.5678L29.4359 19.4698C28.86 18.7467 28.071 18.2232 27.1809 17.9738L27.6649 16.3678Z" fill="white"/>
    <path d="M35.5967 22.1758C29.2497 22.1758 25.9937 25.1898 24.7617 32.2298C26.3567 32.2298 28.9417 32.2298 28.9417 32.2298C33.3417 32.0318 37.7417 28.7098 37.8517 22.3958C37.2797 22.2968 36.0367 22.1758 35.5967 22.1758Z" fill="white"/>
    <path d="M17.2705 26.6299C18.0579 26.6381 18.8246 26.8834 19.4705 27.3339C19.4705 27.3339 18.7115 28.7199 18.0955 29.5339C17.4828 30.3502 16.6814 31.0057 15.7599 31.4444C14.8384 31.8831 13.8243 32.0919 12.8045 32.0529C12.3319 32.0573 11.8601 32.0131 11.3965 31.9209C11.3965 31.9209 13.7945 28.6209 14.2015 28.1479C14.5673 27.6785 15.0318 27.2953 15.5621 27.0253C16.0925 26.7554 16.6757 26.6054 17.2705 26.5859" fill="white"/>
</svg>
