<!-- by TradingView --><svg width="56" height="56" fill="none" xmlns="http://www.w3.org/2000/svg"><path fill="#13A3D7" d="M0 0h56v56H0z"/><path d="M20.65 36c3.69 0 6.14-1.881 6.14-4.643v-.021c0-2.098-1.532-3.426-3.874-3.64v-.064c1.85-.375 3.295-1.627 3.295-3.554v-.021c0-2.43-2.19-4.057-5.593-4.057-3.316 0-5.538 1.756-5.757 4.431l-.01.129h3.03l.012-.096c.131-1.2 1.182-1.98 2.725-1.98 1.554 0 2.463.749 2.463 2.001v.021c0 1.253-1.073 2.11-2.726 2.11h-1.762v2.3H20.4c1.904 0 3.032.814 3.032 2.291v.021c0 1.264-1.095 2.152-2.791 2.152-1.707 0-2.824-.824-2.966-1.927l-.022-.117H14.5l.01.139C14.73 34.14 17.073 36 20.65 36ZM35.065 36c4.005 0 6.435-3.091 6.435-8.004v-.021C41.5 23.06 39.07 20 35.065 20c-4.006 0-6.436 3.061-6.436 7.974v.022c0 4.913 2.43 8.004 6.436 8.004Zm0-2.61c-1.97 0-3.098-2.001-3.098-5.394v-.021c0-3.394 1.128-5.385 3.098-5.385s3.097 1.991 3.097 5.384v.022c0 3.393-1.127 5.395-3.097 5.395Z" fill="#fff"/></svg>