<!-- by TradingView --><svg width="56" height="56" viewBox="0 0 56 56" xmlns="http://www.w3.org/2000/svg"><path fill="#F0F3FA" d="M0 0h56v56H0z"/><path d="M28 8v14.78l12.5 5.59L28 8Z" fill="#8FFCF3"/><path d="M28 8 15.5 28.37 28 22.78V8Z" fill="#CABCF8"/><path d="M28 37.95V48l12.5-17.3L28 37.95Z" fill="#CBA7F5"/><path d="M28 48V37.95L15.5 30.7 28 48Z" fill="#74A0F3"/><path d="m28 35.62 12.5-7.25L28 22.78v12.84Z" fill="#CBA7F5"/><path d="M15.5 28.37 28 35.62V22.78l-12.5 5.59Z" fill="#74A0F3"/><path fill-rule="evenodd" d="m28 35.62-12.5-7.25L28 8l12.5 20.37L28 35.62Zm-11.67-7.84L27.8 9.09v13.59l-11.47 5.1Zm-.17.51 11.64-5.17v11.92l-11.64-6.75Zm12.04-5.17v11.92l11.63-6.75-11.63-5.17Zm0-.44 11.47 5.1L28.2 9.09v13.59Z" fill="#202699"/><path fill-rule="evenodd" d="m28 37.79-12.5-7.1L28 48l12.5-17.31-12.5 7.1Zm-11.1-5.85 10.9 6.2v8.9l-10.9-15.1Zm11.3 6.2v8.9l10.9-15.1-10.9 6.2Z" fill="#202699"/></svg>