<!-- by TradingView --><svg width="56" height="56" fill="none" xmlns="http://www.w3.org/2000/svg"><path fill="#0091BA" d="M0 0h56v56H0z"/><path d="M13.062 36h3.293V20H13.05L9 23.044v2.872l3.997-2.68h.065V36ZM26.018 36c3.975 0 6.386-3.076 6.386-7.995v-.021c0-4.919-2.411-7.984-6.386-7.984s-6.386 3.065-6.386 7.984v.021c0 4.92 2.411 7.995 6.386 7.995Zm0-2.593c-1.955 0-3.073-2.004-3.073-5.402v-.021c0-3.397 1.118-5.39 3.073-5.39 1.955 0 3.073 1.993 3.073 5.39v.021c0 3.398-1.118 5.402-3.073 5.402ZM40.614 36C44.59 36 47 32.924 47 28.005v-.021C47 23.065 44.589 20 40.614 20s-6.386 3.065-6.386 7.984v.021c0 4.92 2.411 7.995 6.386 7.995Zm0-2.593c-1.955 0-3.073-2.004-3.073-5.402v-.021c0-3.397 1.118-5.39 3.073-5.39 1.955 0 3.074 1.993 3.074 5.39v.021c0 3.398-1.119 5.402-3.074 5.402Z" fill="#fff"/></svg>