<?xml version="1.0" encoding="UTF-8"?>
<svg version="1.1" viewBox="0 0 1600 1600" width="1280" height="1280" xmlns="http://www.w3.org/2000/svg">
<path transform="translate(0)" d="m0 0h1600v1600h-1600v-1600z" fill="#000002"/>
<path transform="translate(659 262)" d="m0 0c3.78 0.0354 7.56 0.0633 11.3 0.0921 7.11 0.0553 14.2 0.117 21.3 0.181 8.89 0.0796 17.8 0.151 26.7 0.222 9.08 0.0732 18.2 0.147 27.2 0.226 1.39 0.012 2.77 0.024 4.16 0.036 2.55 0.0222 5.1 0.0447 7.64 0.0675 1.14 0.00986 2.27 0.0197 3.44 0.0299 1.58 0.0147 1.58 0.0147 3.19 0.0298 2.72 0.0138 5.44-0.0107 8.16-0.0408 3.8 0.0558 3.8 0.0558 5.8 1.06 3.12 0.0313 6.23-0.0674 9.35-0.16 3.63 0.159 6.76 0.815 10.3 1.66 4.02 0.85 8.09 1.11 12.2 1.44 6.65 0.602 13 1.47 19.4 3.29 3.05 0.853 6.12 1.5 9.22 2.15 5.66 1.29 10.9 3.15 16.3 5.32 3.27 1.29 6.57 2.39 9.92 3.49 9.28 3.29 17.8 8.07 26.4 12.8 1.41 0.766 2.83 1.53 4.24 2.3 9.27 5.07 18.1 10.7 26.8 16.7 1.06 0.735 1.06 0.735 2.13 1.48 23.1 16.2 43.7 33.7 60.4 56.5 1.84 2.47 3.76 4.86 5.69 7.25 10 12.5 18.6 26 26.8 39.7 0.798 1.3 1.6 2.61 2.39 3.91 20.7 34.2 33.4 74 36.2 114 0.393 2.39 1.26 4.04 2.36 6.18 0.275 1.95 0.545 3.89 0.753 5.85 4.96 43.3 25.7 103 60.9 131 8.69 6.61 18.3 11.3 28.2 15.7 8.76 4 8.76 4 10.2 7.79-0.125 3.12-0.125 3.12-2.25 5.62-1.42 1.24-1.42 1.24-2.88 2.5-0.784 0.99-1.57 1.98-2.38 3-7.79 8.9-17.4 10.5-28.6 12.6-2.06 0.356-2.06 0.356-4 1.43 1.67 6.91 3.47 13.8 5.38 20.6 0.214 0.77 0.429 1.54 0.649 2.33 1.05 3.77 2.11 7.53 3.2 11.3 4.03 14.1 7.91 28.4 10.3 42.9 0.463 3.03 0.463 3.03 1.5 6.55 1.31 5.12 1.56 10.2 1.8 15.5 0.0638 0.971 0.128 1.94 0.193 2.94 0.263 5.4 0.128 8.32-3.01 12.9-0.759 2.78-1.22 5.61-1.75 8.44-1.88 9.17-1.88 9.17-6 12.4-1.07 0.701-2.14 1.4-3.25 2.12v3c1.81 1.53 1.81 1.53 4.31 2.94 1 0.607 2 1.21 3.03 1.84 0.574 0.345 1.15 0.691 1.74 1.05 2.15 1.32 4.27 2.68 6.39 4.06 10.7 6.92 21.4 13.1 33.1 18.1 18.9 8.21 35.8 18.8 52.4 31 1.24 0.902 2.48 1.8 3.72 2.71 3.09 2.25 6.16 4.51 9.23 6.78 2.26 1.67 4.52 3.33 6.78 4.99 7.77 5.71 15.5 11.4 23.2 17.2 2.32 1.74 4.64 3.48 6.96 5.21 6.58 4.91 13.1 9.84 19.5 15 1.96 1.58 3.93 3.13 5.92 4.67 6.25 4.84 12.3 9.75 18.2 15.1 2 1.83 4.03 3.61 6.09 5.38 4.52 3.95 8.77 8.14 13 12.4 0.793 0.792 1.59 1.58 2.4 2.4 1.67 1.67 3.33 3.33 4.99 5 2.53 2.53 5.06 5.06 7.6 7.59 1.63 1.63 3.25 3.26 4.88 4.88 0.748 0.746 1.5 1.49 2.27 2.26 4.07 4.09 7.98 8.26 11.7 12.6 2.18 2.52 4.47 4.93 6.75 7.36 3.91 4.21 7.52 8.56 11 13.1 5.29 6.91 11.2 13.2 17.2 19.5 3.1 3.24 6.05 6.58 8.97 9.98 1.59 1.79 3.25 3.46 4.98 5.12 9.78 9.67 24.5 25 24.7 39.5-0.316 10.1-2.13 16.6-9.23 24.1-0.489 0.523-0.978 1.05-1.48 1.58-8.96 9.47-18.9 16.3-30.3 22.5-1.6 0.877-1.6 0.877-3.23 1.77-8.71 4.74-17.5 8.99-26.6 12.9-1.02 0.442-1.02 0.442-2.06 0.893-51.9 22.5-106 39.8-161 51-9.28 1.87-18.5 3.86-27.8 5.84-0.921 0.197-1.84 0.394-2.79 0.597-10.6 2.26-21.1 4.56-31.6 7.03-23.5 5.5-47.1 10.6-70.8 15-1.18 0.223-2.36 0.446-3.58 0.676-1.02 0.19-2.04 0.38-3.09 0.576-2.35 0.482-4.68 1.04-7 1.63-4.34 1.1-8.7 1.84-13.1 2.53-0.848 0.136-1.7 0.272-2.57 0.413-1.82 0.292-3.63 0.582-5.45 0.871-4.86 0.773-9.71 1.56-14.6 2.34-1.47 0.237-1.47 0.237-2.96 0.478-8.71 1.41-17.4 2.88-26.1 4.38-1.4 0.24-2.79 0.48-4.19 0.721-6.14 1.06-12.3 2.12-18.4 3.19-4.59 0.795-9.17 1.59-13.8 2.38-1.76 0.304-3.52 0.609-5.28 0.916-8.29 1.45-16.6 2.84-24.9 3.81-5.15 0.609-10.2 1.41-15.3 2.42-10.8 2.14-21.8 3.32-32.8 4.63-4.21 0.508-8.43 1.02-12.6 1.54-1.5 0.182-1.5 0.182-3.02 0.369-5.91 0.731-11.8 1.6-17.6 2.64-4.17 0.672-8.37 0.963-12.6 1.27-9.29 0.734-18.5 1.78-27.8 2.91-12 1.48-23.9 2.69-36 3.03-2.53 0.0785-4.84 0.288-7.36 0.66-19.8 2.74-40.6 1.64-60.5 1.69-2.54 0.00742-5.08 0.018-7.63 0.032-15.3 0.0766-30.4-0.397-45.6-2.21-1.42-0.158-2.84-0.315-4.26-0.47-12.5-1.43-24.2-3.94-35.6-9.47-0.676-0.324-1.35-0.647-2.05-0.981-4.03-2.08-6.36-3.88-8.14-8.08-0.363-2.28-0.363-2.28-0.312-4.5 0.00387-0.732 0.00773-1.46 0.0117-2.22 0.352-2.67 1.29-4.79 2.3-7.28 0.338-1.83 0.627-3.66 0.875-5.5 0.876-5.67 2.43-10.9 4.19-16.4 1.1-3.7 1.75-7.36 2.37-11.2 2.71-14.3 2.71-14.3 5.57-20 0.408-2.84 0.759-5.65 1.06-8.5 0.0931-0.846 0.186-1.69 0.282-2.56 0.586-5.82 0.653-11.5 0.468-17.3-0.18-7.02 1.04-12.3 3.95-18.8 1.69-3.86 2.46-7.72 3.24-11.8 0.168-0.59 0.335-1.18 0.508-1.79 0.708-3.18 0.941-6.27 1.12-9.52 0.0954-1.27 0.191-2.55 0.289-3.86-1.38-5.78-5.05-7.76-9.91-10.8-2.93-1.76-5.91-3.36-8.94-4.94-8.93-4.77-17.6-9.97-26.1-15.3-5.95-3.7-11.9-7.37-18-10.7-16-9.03-31.4-19.4-44.9-32-1.03-0.926-1.03-0.926-2.08-1.87-6.4-6.01-13-13.8-15.9-22.1-2.42 0.413-4.83 0.83-7.25 1.25-0.761 0.131-1.52 0.261-2.31 0.396-4.14 0.725-8.26 1.52-12.4 2.44-26.2 5.88-51 2.61-74.4-11-15.8-10.1-26.2-22.6-32.8-40.2-1.16-5.47-1.16-10.8-1.13-16.4 0.00564-1.16 0.0113-2.32 0.0171-3.52 0.24-17 3.61-33.9 14.9-47.1 1.97-2.58 2.5-4.63 2.42-7.86-0.631-2.16-0.631-2.16-2-4-2.1-0.762-2.1-0.762-4.58-0.906-0.914-0.104-1.83-0.209-2.77-0.316-0.958-0.0915-1.92-0.183-2.9-0.277-8.02-0.779-12.9-1.67-18.8-7.5-1.21-4.55-0.76-6.76 1-11 0.727-5.5-0.445-8.7-3.43-13.2-1.65-1.91-3.16-2.94-5.32-4.2-2.24-1.46-3.1-2.15-3.92-4.73-0.291-2.65-0.34-5.23-0.332-7.89-0.0593-0.92-0.119-1.84-0.18-2.79-0.393-8.57 1.76-16 4.18-24.2 4.55-15.1 4.55-15.1 2-30-1.02 0.325-1.02 0.325-2.05 0.656-13 3.89-24.6 2.92-36.7-3.47-4.61-2.68-9.37-5.5-13.2-9.19v-2c-0.99-0.33-1.98-0.66-3-1-4.22-5.28-7.34-11.4-6.68-18.3 0.704-3.8 1.5-7.56 2.43-11.3 0.456-1.91 0.456-1.91 0.922-3.85 3.1-11.3 8.18-21.9 13.1-32.4 0.31-0.662 0.619-1.32 0.939-2.01 3.31-7.07 6.66-14.1 10.4-20.9 5.21-9.48 9.41-19.4 13.6-29.4 0.711-1.68 1.43-3.35 2.16-5.02 4.58-10.4 6.44-21.4 2.83-32.4-3.79-8.03-8.99-15.2-14.1-22.5-3.85-5.47-7.34-11.1-10.7-16.9-0.552-0.906-1.1-1.81-1.67-2.75-2.28-4.03-3.34-6.5-3.27-11.2 2.94-8.15 10.4-14.6 17.8-18.5 0.884-0.411 1.77-0.822 2.68-1.25 4.04-2.18 6.07-4.33 7.7-8.63 0.866-3.57 0.866-3.57 0.688-6.81 0.111-6.89 2.17-13.5 3.93-20.1 1.43-5.41 2.51-10.1 2.13-15.7-5.09-0.998-8.35-0.883-13.2 0.75-26.9 8.05-58.8 9.01-83.9-4.42-7.01-4.24-14.1-9.38-18-16.8-1.38-5.61-0.477-9.9 2.5-14.8 2.35-3.24 4.27-5.48 7.62-7.72 1.24 0.0619 2.48 0.124 3.75 0.188 5 0.101 7.69-1.83 11.2-5.19 1.77-1.9 3.46-3.85 5.12-5.84 1.98-2.28 4.08-4.37 6.25-6.47 6.24-6.17 12.5-12.9 16.6-20.7-0.176-2.04-0.176-2.04-1-4-0.341-1.67-0.676-3.33-1-5 3-2 3-2 7-2 0.224-0.554 0.449-1.11 0.68-1.68 1.72-3.02 3.93-5.04 6.45-7.45 5.09-4.97 9.62-10.2 13.9-15.9 0.606-0.812 1.21-1.62 1.84-2.46 3.08-4.27 5.75-8.55 8.16-13.2 2.3-4.36 4.8-7.51 8.42-10.8 1.75-1.55 1.75-1.55 3.52-3.98 2.41-2.93 5.12-5.23 8-7.69 1.89-1.66 3.63-3.38 5.38-5.19 8.6-8.7 18.8-15.8 28.6-23.1 2.12-1.58 4.23-3.17 6.34-4.76 11.5-8.65 11.5-8.65 16.7-12.2 3.78-2.6 7.42-5.36 11-8.17 8.44-6.53 17-12.7 26-18.4 1.1-0.701 2.19-1.4 3.32-2.12 15.8-9.91 32.8-18.3 49.7-26.1 0.765-0.35 1.53-0.7 2.32-1.06 4.64-2.06 9.3-3.62 14.2-5.02 4.36-1.31 8.56-3 12.8-4.66 3.54-1.36 6.92-2.37 10.6-3.07 1.74-0.617 3.47-1.26 5.19-1.94 4.37-1.63 8.57-2.68 13.1-3.5 5.33-1.12 10.5-2.91 15.7-4.56 1.81-0.568 3.62-1.13 5.44-1.69 1.11-0.346 1.11-0.346 2.25-0.699 13.2-3.49 27.4-3.77 40.9-4.18 0.69-0.0213 1.38-0.0425 2.09-0.0645 15.4-0.465 30.9-0.415 46.3-0.265z" fill="#FC2428"/>
<path transform="translate(1026,855)" d="m0 0c-1.3 4.95-3.48 8.11-6.88 11.8-4.31 4.9-8.22 9.95-11.9 15.3-15 21.6-31 42.6-47.2 63.3-18.1 22.9-18.1 22.9-35 46.5h-2c-0.206 0.681-0.413 1.36-0.625 2.06-1.49 3.18-3.23 5.27-5.55 7.87-2.1 2.38-4.08 4.85-6.07 7.32-3.98 4.9-8.17 9.55-12.5 14.1-2.38 2.62-2.38 2.62-4.43 5.93-0.605 0.883-1.21 1.77-1.83 2.68h-2c-0.268 0.59-0.536 1.18-0.812 1.79-1.2 2.23-2.45 3.77-4.2 5.6-0.59 0.623-1.18 1.25-1.79 1.89-0.623 0.65-1.25 1.3-1.89 1.97-1.28 1.35-2.56 2.7-3.83 4.05-0.608 0.643-1.22 1.29-1.84 1.95-1.89 2.02-3.71 4.09-5.51 6.19-2.27 2.64-4.65 5.12-7.12 7.56-3.88 3.84-7.46 7.85-11 12-1.96 2.29-3.92 4.58-5.88 6.88-0.519 0.608-1.04 1.22-1.57 1.84-3.05 3.56-6.14 7.07-9.3 10.5-4.31 4.75-8.29 9.71-12.2 14.8-8.22 10.5-8.22 10.5-13 15-4.24 4.13-8.26 8.36-12.1 12.8-2.05 2.36-4.15 4.66-6.25 6.97-6.56 7.28-12.8 14.8-18.4 22.8-0.393 0.45-0.786 0.9-1.19 1.36h-2c-0.244 0.541-0.487 1.08-0.738 1.64-3.96 7.4-9.87 14-15.5 20.2-3.03 3.55-5.75 7.33-8.54 11.1-2.17 2.91-4.36 5.81-6.59 8.67l-1.86 2.41c-1.84 1.98-3.34 2.94-5.82 3.96-4.07-3.82-7.2-7.88-10.3-12.5-0.476-0.701-0.953-1.4-1.44-2.12-16.8-25-16.8-25-17.2-35.4-0.0516-1.15-0.103-2.3-0.156-3.49-0.351-14.5 3.72-23.2 11.5-35.1 1.79-2.73 3.55-5.47 5.32-8.21 1.3-2.02 2.61-4.04 3.91-6.05 0.609-0.942 1.22-1.88 1.84-2.85 14.9-22.9 33-42 52.3-61.2 1.91-1.91 3.82-3.82 5.73-5.73 2.31-2.31 4.62-4.62 6.93-6.93 0.843-0.845 1.69-1.69 2.55-2.56 4.3-4.28 8.65-8.42 13.3-12.3 1.83-1.61 3.55-3.3 5.25-5.04 2.9-2.95 5.94-5.65 9.07-8.35 3.2-2.82 6.31-5.74 9.43-8.65 7.51-7 15.2-13.7 23.1-20.3 3.35-2.83 6.62-5.72 9.85-8.69 4.33-3.93 8.84-7.54 13.5-11.1 11.6-9 22.9-18.2 33.7-28.2 12.1-11.1 24.5-21.3 37.9-30.8 2.6-1.84 5.18-3.72 7.75-5.6 0.846-0.614 1.69-1.23 2.56-1.86 1.42-1.03 2.84-2.07 4.26-3.11 14.7-10.8 30.3-19.5 46.6-27.8 0.623-0.319 1.25-0.637 1.89-0.965 1.72-0.877 3.44-1.75 5.16-2.63 6.94-3.67 6.94-3.67 10.8-3.46z" fill="#000002"/>
<path transform="translate(687,1204)" d="m0 0c4.88 0.148 7.03 2.64 10.2 5.99 2.31 2.57 4.6 5.14 6.83 7.78 1.5 1.69 3.07 3.32 4.68 4.91 0.924 0.933 1.85 1.87 2.8 2.83 1.31 1.28 1.31 1.28 2.66 2.59 2.05 3.22 2.23 4.99 1.51 8.72-1.26 4.16-3.2 7.91-5.23 11.7-0.451 0.88-0.902 1.76-1.37 2.67-2.02 3.92-4.08 7.81-6.2 11.7-0.324 0.591-0.647 1.18-0.981 1.79-0.637 1.16-1.28 2.33-1.92 3.49-1.99 3.7-3.7 7.46-5.3 11.3-0.394 0.957-0.789 1.91-1.2 2.9-0.768 1.89-1.52 3.79-2.25 5.7-2.64 6.53-2.64 6.53-6 8.48-0.736 0.13-1.47 0.26-2.23 0.395-2.54-2.54-2.34-3.7-2.56-7.23-0.112-1.57-0.112-1.57-0.227-3.18-0.0696-1.1-0.139-2.2-0.211-3.34-0.563-9.3-0.563-9.3-3-18.2-0.354-2.14-0.666-4.29-0.938-6.44-0.534-3.76-1.05-7.07-2.69-10.5-1.59-3.54-1.78-5.21-1.38-9.06 1.17-2.9 2.67-5.55 4.25-8.25 0.396-0.719 0.791-1.44 1.2-2.18 2.15-3.77 3.44-5.83 7.55-7.57-0.0232-0.641-0.0464-1.28-0.0703-1.94-0.114-5.47 0.272-9.89 2.07-15.1z" fill="#000002"/>
</svg>
