<!-- by TradingView --><svg width="56" height="56" viewBox="0 0 56 56" xmlns="http://www.w3.org/2000/svg"><path fill="#2775CA" d="M0 0h56v56H0z"/><path d="M28 44c8.87 0 16-7.13 16-16 0-8.87-7.13-16-16-16-8.87 0-16 7.13-16 16 0 8.87 7.13 16 16 16Z" fill="#fff"/><path d="M32.4 30.53c0-2.33-1.4-3.13-4.2-3.46-2-.27-2.4-.8-2.4-1.74 0-.93.67-1.53 2-1.53 1.2 0 1.87.4 2.2 1.4.07.2.27.33.47.33h1.06c.27 0 .47-.2.47-.46V25c-.27-1.47-1.47-2.87-3-3v-1.47c0-.27-.2-.47-.53-.53h-.88c-.27 0-.52.2-.59.53V22c-2 .27-3.33 1.8-3.33 3.47 0 2.2 1.33 3.06 4.13 3.4 1.87.33 2.47.73 2.47 1.8 0 1.06-.94 1.8-2.2 1.8-1.74 0-2.34-.74-2.54-1.74-.06-.26-.26-.4-.46-.4h-1.14c-.26 0-.46.2-.46.47v.07c.26 1.66 1.33 2.8 3.53 3.13v1.48c0 .27.2.45.53.52h.96c.26 0 .44-.18.51-.52V34c2-.33 3.4-1.67 3.4-3.47Z" fill="#2775CA"/><path d="M24.6 37.53a9.93 9.93 0 0 1-5.93-12.8c1-2.8 3.2-4.93 5.93-5.93.27-.13.4-.33.4-.67v-.93c0-.27-.13-.47-.4-.53-.07 0-.2 0-.27.06a12 12 0 0 0 0 22.87c.27.13.54 0 .6-.27.07-.06.07-.13.07-.26v-.94c0-.2-.2-.46-.4-.6Zm7.07-20.8c-.27-.13-.54 0-.6.27-.07.07-.07.13-.07.27v.93c0 .27.2.53.4.67a9.93 9.93 0 0 1 5.93 12.8c-1 2.8-3.2 4.93-5.93 5.93-.27.13-.4.33-.4.67v.93c0 .27.13.47.4.53.07 0 .2 0 .27-.06 6.33-2 9.8-8.74 7.8-15.07a12.1 12.1 0 0 0-7.8-7.87Z" fill="#2775CA"/></svg>