<svg xmlns="http://www.w3.org/2000/svg" version="1.1" xmlns:xlink="http://www.w3.org/1999/xlink" xmlns:svgjs="http://svgjs.dev/svgjs" width="1440" height="560" preserveAspectRatio="none" viewBox="0 0 1440 560"><g mask="url(&quot;#SvgjsMask1024&quot;)" fill="none"><path d="M0 536.93L10 501.04L20 558.03L30 530.11L40 490.17L50 451.03L60 418.77L70 439.79L80 503.16L90 475.28L100 487.46L110 420.95L120 408.16L130 431.56L140 471.74L150 459.43L160 528.8L170 488L180 454.61L190 485.95L200 476.98L210 512.42L220 458.24L230 413.07L240 448.41L250 388.18L260 419L270 404.06L280 378.77L290 379.98L300 360.9L310 300.5L320 352.23L330 293.16L340 233.66L350 273.77L360 314.05L370 276.47L380 310.25L390 259.78L400 197.68L410 170.18L420 239.71L430 293.96L440 362.14L450 402.46L460 341.51L470 287.73L480 251.29L490 308.52L500 262.35L510 273.23L520 293.58L530 345.54L540 361.56L550 362.98L560 426.97L570 410.72L580 457.32L590 454.41L600 520.52L610 557.55L620 523.83L630 491.73L640 483.31L650 432.04L660 456.37L670 417.18L680 483.76L690 442.25L700 391.9L710 381.09L720 427.15L730 393.22L740 391.51L750 381.53L760 323.6L770 356.7L780 391.42L790 337.87L800 289.31L810 231.83L820 228.71L830 274.2L840 275.31L850 331.14L860 382.03L870 382.16L880 429.17L890 462.05L900 512.82L910 527.79L920 478.39L930 412.38L940 414.65L950 465.93L960 405.15L970 406.08L980 474.15L990 413.01L1000 348.74L1010 387.71L1020 383.22L1030 440.35L1040 399.75L1050 434.54L1060 403.67L1070 410.41L1080 362.74L1090 365.04L1100 390.17L1110 385.04L1120 445.7L1130 426.57L1140 406.78L1150 393.39L1160 445.04L1170 426.47L1180 363.06L1190 411.13L1200 404.96L1210 366.42L1220 405.93L1230 388.12L1240 362.81L1250 428.59L1260 411.32L1270 345.63L1280 285.21L1290 332.93L1300 377.99L1310 322.85L1320 379.35L1330 418.32L1340 381.47L1350 329.08L1360 316.59L1370 314.66L1380 255.89L1390 196.75L1400 166.85L1410 181.76L1420 136.54L1430 174.93L1440 151.08" stroke="rgba(25, 27, 36, 1)" stroke-width="2"></path><path d="M0 536.93L10 501.04L20 558.03L30 530.11L40 490.17L50 451.03L60 418.77L70 439.79L80 503.16L90 475.28L100 487.46L110 420.95L120 408.16L130 431.56L140 471.74L150 459.43L160 528.8L170 488L180 454.61L190 485.95L200 476.98L210 512.42L220 458.24L230 413.07L240 448.41L250 388.18L260 419L270 404.06L280 378.77L290 379.98L300 360.9L310 300.5L320 352.23L330 293.16L340 233.66L350 273.77L360 314.05L370 276.47L380 310.25L390 259.78L400 197.68L410 170.18L420 239.71L430 293.96L440 362.14L450 402.46L460 341.51L470 287.73L480 251.29L490 308.52L500 262.35L510 273.23L520 293.58L530 345.54L540 361.56L550 362.98L560 426.97L570 410.72L580 457.32L590 454.41L600 520.52L610 557.55L620 523.83L630 491.73L640 483.31L650 432.04L660 456.37L670 417.18L680 483.76L690 442.25L700 391.9L710 381.09L720 427.15L730 393.22L740 391.51L750 381.53L760 323.6L770 356.7L780 391.42L790 337.87L800 289.31L810 231.83L820 228.71L830 274.2L840 275.31L850 331.14L860 382.03L870 382.16L880 429.17L890 462.05L900 512.82L910 527.79L920 478.39L930 412.38L940 414.65L950 465.93L960 405.15L970 406.08L980 474.15L990 413.01L1000 348.74L1010 387.71L1020 383.22L1030 440.35L1040 399.75L1050 434.54L1060 403.67L1070 410.41L1080 362.74L1090 365.04L1100 390.17L1110 385.04L1120 445.7L1130 426.57L1140 406.78L1150 393.39L1160 445.04L1170 426.47L1180 363.06L1190 411.13L1200 404.96L1210 366.42L1220 405.93L1230 388.12L1240 362.81L1250 428.59L1260 411.32L1270 345.63L1280 285.21L1290 332.93L1300 377.99L1310 322.85L1320 379.35L1330 418.32L1340 381.47L1350 329.08L1360 316.59L1370 314.66L1380 255.89L1390 196.75L1400 166.85L1410 181.76L1420 136.54L1430 174.93L1440 151.08L1440 560L0 560z" fill="url(&quot;#SvgjsLinearGradient1025&quot;)"></path></g><defs><mask id="SvgjsMask1024"><rect width="1440" height="560" fill="#ffffff"></rect></mask><linearGradient x1="50%" y1="0%" x2="50%" y2="100%" id="SvgjsLinearGradient1025"><stop stop-opacity="0.65" stop-color="rgba(25, 27, 36, 1)" offset="0"></stop><stop stop-opacity="0" stop-color="#2f3344" offset="0.8"></stop></linearGradient></defs></svg>