<svg xmlns="http://www.w3.org/2000/svg" xmlns:xlink="http://www.w3.org/1999/xlink" id="svg" x="0px" y="0px" viewBox="0 0 400 400" style="enable-background:new 0 0 400 400;" xml:space="preserve"><style type="text/css">	.st0{fill-rule:evenodd;clip-rule:evenodd;fill:#4ECB7D;stroke:#4ECB7D;stroke-width:0.75;stroke-miterlimit:10;}	.st1{fill-rule:evenodd;clip-rule:evenodd;fill:#4ECB7D;}	.st2{fill-rule:evenodd;clip-rule:evenodd;}	.st3{fill-rule:evenodd;clip-rule:evenodd;fill:#4ECB7D;}</style><g id="svgg">	<path id="path0" class="st0" d="M173.1,7.5c-0.4,0.1-0.7,0.4-0.7,0.8c0,0.5-0.7,0.6-3.6,0.6c-3.3,0-5.6,0.5-5.6,1.2  c0,0.2-1.6,0.4-3.5,0.4c-2.7,0.1-3.7,0.3-4.2,0.8c-0.5,0.5-1.3,0.7-3,0.7c-2.1,0-3.6,0.6-3,1.3c0.1,0.1-0.7,0.2-1.7,0.3  c-2.8,0.1-4.1,0.5-4.1,1.1c0,0.4-0.6,0.6-2.2,0.6c-1.8,0-2.3,0.2-2.7,0.8c-0.3,0.5-0.9,0.8-1.7,0.8c-1.8,0-3,0.4-3,1  c0,0.4-0.5,0.6-1.6,0.6c-1.3,0-1.7,0.2-1.8,0.8c-0.2,0.7-0.5,0.8-2.2,0.8c-1.5,0-2.1,0.2-2.4,0.8c-0.3,0.5-0.9,0.8-1.6,0.8  s-1.3,0.3-1.6,0.8c-0.3,0.5-0.9,0.8-1.7,0.8c-0.7,0-1.6,0.4-2.1,0.8s-1.3,0.8-1.8,0.8c-0.5,0-1.2,0.4-1.5,0.8  c-0.3,0.4-1,0.8-1.6,0.8s-1.3,0.4-1.6,0.8c-0.3,0.4-1,0.8-1.4,0.8c-0.8,0-1.9,0.9-1.6,1.3c0.1,0.1-0.3,0.2-0.9,0.3  c-0.6,0-1.4,0.4-1.7,0.9c-0.4,0.5-1.2,0.8-1.9,0.8c-0.9,0-1.3,0.2-1.5,0.8c-0.1,0.4-0.5,0.8-0.9,0.8c-0.4,0-1,0.4-1.4,0.8  c-0.4,0.4-1.1,0.8-1.5,0.8c-0.4,0-0.9,0.3-1,0.8C98.4,35.8,98,36,97.2,36c-0.6,0-1.4,0.3-1.7,0.7c-0.3,0.4-0.8,0.8-1.2,1  c-0.4,0.1-0.7,0.5-0.7,0.9c0,0.4-0.4,0.6-1.2,0.6c-0.7,0-1.4,0.3-1.7,0.7c-0.3,0.4-0.8,0.8-1.2,1c-0.4,0.1-0.7,0.5-0.7,0.9  c0,0.3-0.3,0.6-0.8,0.6c-0.4,0-1.2,0.4-1.6,0.8C86,43.6,85.3,44,85,44c-0.4,0-0.7,0.4-0.8,0.8c-0.1,0.4-0.5,0.8-0.8,0.8  c-0.3,0-0.7,0.3-0.8,0.8c-0.1,0.5-0.7,0.9-1.6,1c-0.8,0.1-1.4,0.5-1.4,0.8c0,0.3-0.4,0.7-0.8,0.8c-0.4,0.1-0.8,0.4-0.8,0.6  c0,0.2-0.4,0.6-1,0.8s-1,0.7-1,1c0,0.3-0.3,0.6-0.6,0.6c-0.4,0-0.7,0.4-0.8,0.8c-0.1,0.4-0.5,0.8-0.8,0.8c-0.3,0-0.7,0.4-0.8,0.8  c-0.1,0.4-0.5,0.8-0.8,0.8c-0.3,0-0.7,0.4-0.8,0.8c-0.1,0.4-0.5,0.8-1,0.8c-1,0-12,11-12,12c0,0.4-0.4,0.8-0.8,1  c-0.4,0.1-0.8,0.5-0.8,0.8c0,0.3-0.4,0.7-0.8,0.8c-0.4,0.1-0.8,0.5-0.8,0.8c0,0.3-0.4,0.7-0.8,0.8c-0.4,0.1-0.8,0.5-0.8,0.8  c0,0.3-0.3,0.6-0.6,0.6c-0.3,0-0.8,0.4-1,1c-0.2,0.5-0.6,1-0.8,1c-0.2,0-0.5,0.4-0.6,0.8c-0.1,0.4-0.5,0.8-0.8,0.8  c-0.3,0-0.7,0.6-0.8,1.4c-0.2,0.9-0.5,1.4-1,1.6c-0.4,0.1-0.8,0.5-0.8,0.8c0,0.3-0.4,0.7-0.8,0.8c-0.5,0.1-0.8,0.5-0.8,1  c0,0.4-0.4,1.1-0.8,1.5c-0.4,0.4-0.8,1.1-0.8,1.5s-0.3,0.7-0.6,0.7c-0.3,0-0.7,0.3-0.9,0.7c-0.1,0.4-0.6,0.9-1,1.2  c-0.4,0.3-0.7,1-0.7,1.7c0,0.9-0.2,1.2-0.8,1.2c-0.5,0-0.8,0.3-0.8,0.7c0,0.4-0.4,0.9-0.8,1.2c-0.5,0.3-0.8,0.9-0.8,1.7  c0,0.8-0.2,1.2-0.8,1.4C36.4,97,36,97.4,36,97.8c0,0.3-0.4,1-0.8,1.4c-0.4,0.4-0.8,1.1-0.8,1.6c0,0.4-0.4,0.8-0.8,1  c-0.6,0.2-0.8,0.5-0.8,1.5c0,0.9-0.3,1.5-0.8,1.8c-0.4,0.3-0.8,0.8-0.8,1.2c0,0.4-0.4,1-0.8,1.3c-0.4,0.3-0.8,1-0.8,1.6  c0,0.6-0.4,1.3-0.8,1.6c-0.4,0.3-0.8,1-0.8,1.6c0,0.6-0.4,1.3-0.8,1.6c-0.4,0.3-0.8,0.9-0.8,1.3c0,0.4-0.4,1.1-0.8,1.5  c-0.5,0.5-0.8,1.3-0.8,2.3c0,1.1-0.2,1.6-0.8,2c-0.5,0.3-0.8,0.9-0.8,1.6c0,0.6-0.4,1.4-0.8,1.8c-0.7,0.6-1.1,2.6-0.8,4.1  c0,0.2-0.1,0.3-0.2,0.1c-0.6-0.6-1.4,0.6-1.4,2.1c0,1.1-0.2,1.6-0.6,1.6c-0.6,0-1,1.2-1,3c0,0.8-0.3,1.4-0.8,1.7  c-0.6,0.4-0.8,0.9-0.8,2.7c0,1.6-0.1,2.2-0.6,2.2c-0.6,0-1,1.2-1,3.2c0,0.8-0.3,1.6-0.7,1.9c-0.5,0.4-0.7,1.3-0.9,3.2  c-0.1,1.9-0.4,2.9-0.8,3.2c-0.5,0.4-0.7,1.3-0.8,4.1c-0.1,2-0.3,3.6-0.4,3.6c-0.7,0-1.2,2.3-1.2,5.5c0,3-0.1,3.6-0.8,4.2  c-1.2,1-1.1,55.6,0.1,56.5c0.6,0.4,0.7,1.1,0.7,4.1c0,3.4,0.5,5.7,1.3,5.7c0.2,0,0.3,1.3,0.3,2.8c0,2.7,0.6,4.8,1.3,4.8  c0.2,0,0.3,0.9,0.3,1.9c0,2.5,0.4,3.7,1,3.7c0.4,0,0.6,0.6,0.6,2.1c0,1.6,0.2,2.3,0.8,3c0.5,0.5,0.8,1.4,0.8,2.4  c0,2.1,0.4,3.3,1,3.3c0.4,0,0.6,0.5,0.6,1.5c0,2.1,0.4,3.3,1,3.3c0.4,0,0.6,0.5,0.6,1.6c0,1.5,0.8,2.7,1.4,2.1  c0.2-0.2,0.3-0.1,0.2,0.1c-0.3,1.3,0.1,3.1,0.8,3.8c0.4,0.4,0.8,1.3,0.8,1.8s0.4,1.3,0.8,1.7c0.5,0.4,0.8,1.2,0.8,2  c0,1,0.2,1.4,0.8,1.6c0.6,0.2,0.8,0.5,0.8,1.6c0,1.1,0.2,1.4,0.8,1.6c0.6,0.1,0.8,0.5,0.8,1.4c0,0.7,0.3,1.3,0.8,1.6  c0.5,0.3,0.8,0.9,0.8,1.6c0,0.7,0.3,1.3,0.8,1.6c0.5,0.3,0.8,0.9,0.8,1.6s0.3,1.3,0.8,1.6c0.5,0.3,0.8,0.9,0.8,1.6  c0,0.6,0.3,1.3,0.7,1.6c0.4,0.3,1,1,1.3,1.6c0.3,0.6,0.7,1.1,0.9,1.1c0.2,0,0.3,0.5,0.3,1c0,0.7,0.3,1.1,0.8,1.2  c0.4,0.1,0.8,0.5,0.8,1c0,0.4,0.4,1.1,0.8,1.6c0.4,0.4,0.8,1.1,0.8,1.4c0,0.4,0.4,0.7,0.8,0.8c0.4,0.1,0.8,0.5,0.8,1  c0,0.4,0.4,1.1,0.8,1.6c0.4,0.4,0.8,1.1,0.8,1.4c0,0.4,0.4,0.7,0.8,0.8c0.4,0.1,0.8,0.5,0.8,0.9c0,0.4,0.4,0.9,0.8,1.2  c0.4,0.3,0.8,0.9,0.8,1.3s0.3,0.9,0.7,1.2c0.4,0.3,0.8,0.8,1,1.2c0.1,0.4,0.5,0.7,0.9,0.7c0.3,0,0.6,0.3,0.6,0.8  c0,0.5,0.3,0.8,0.8,0.8c0.6,0,0.8,0.3,0.8,0.9c0,0.5,0.7,1.6,1.5,2.5c0.8,0.9,1.6,1.9,1.8,2.3c0.1,0.4,0.5,0.7,0.9,0.7  c0.3,0,0.6,0.3,0.6,0.6c0,0.4,0.4,0.7,0.8,0.8c0.4,0.1,0.8,0.5,0.8,0.8s0.4,0.7,0.8,0.8c0.4,0.1,0.8,0.5,0.8,0.8  c0,0.3,0.4,0.7,0.8,0.8c0.4,0.1,0.8,0.5,0.8,0.8c0,0.3,0.4,0.7,0.8,0.8c0.4,0.1,0.8,0.5,0.8,0.8c0,0.3,0.4,0.7,0.8,0.8  c0.4,0.1,0.8,0.5,0.8,0.9c0,0.9,1.6,2.4,2.5,2.4c0.4,0,0.7,0.3,0.7,0.6c0,0.4,0.4,0.7,0.8,0.8c0.4,0.1,0.8,0.5,0.8,0.8  c0,0.3,0.4,0.7,0.8,0.8c0.4,0.1,0.8,0.5,0.8,0.8c0,0.3,0.4,0.7,0.8,0.8c0.4,0.1,0.8,0.5,0.8,0.8c0,0.3,0.4,0.7,0.8,0.8  c0.4,0.1,0.8,0.5,0.8,0.8s0.4,0.7,0.8,0.8c0.4,0.1,0.8,0.5,0.8,0.8c0,0.3,0.3,0.7,0.6,0.8c0.3,0.1,1.4,0.9,2.3,1.8  c0.9,0.9,2.1,1.6,2.6,1.6c0.6,0,0.9,0.2,0.9,0.6c0,0.4,0.4,0.7,0.8,0.8c0.4,0.1,0.8,0.5,0.8,0.8s0.3,0.7,0.7,0.8  c0.4,0.1,0.9,0.6,1.2,1c0.3,0.4,1,0.7,1.7,0.7c0.8,0,1.2,0.2,1.2,0.6c0,0.4,0.3,0.7,0.8,0.8c0.4,0.1,0.9,0.5,1,1  c0.1,0.4,0.5,0.8,0.8,0.8c0.3,0,1,0.4,1.4,0.8c0.4,0.4,1.1,0.8,1.6,0.8c0.4,0,0.8,0.4,1,0.8c0.1,0.4,0.5,0.8,0.8,0.8  c0.3,0,1,0.4,1.4,0.8s1.1,0.8,1.6,0.8c0.4,0,0.8,0.4,1,0.8c0.2,0.6,0.5,0.8,1.6,0.8s1.4,0.2,1.6,0.8c0.1,0.5,0.5,0.8,1,0.8  c0.5,0,0.8,0.3,0.8,0.6c0,0.3,0.6,0.7,1.3,0.8c0.7,0.2,1.6,0.6,2,1c0.4,0.4,1.1,0.8,1.6,0.8c0.5,0,1.1,0.4,1.4,0.8  c0.3,0.5,0.9,0.8,1.6,0.8c0.7,0,1.3,0.3,1.6,0.8c0.3,0.5,0.9,0.8,1.6,0.8s1.3,0.3,1.6,0.8c0.3,0.5,0.9,0.8,1.6,0.8  c0.6,0,1.4,0.4,1.8,0.8c0.4,0.5,1.2,0.8,1.9,0.8c0.7,0,1.1,0.2,1,0.4c-0.3,0.5,0.6,1.1,2.1,1.2c0.7,0.1,1.7,0.5,2.2,0.9  c0.5,0.4,1.4,0.8,2,0.8c0.8,0,1.4,0.3,1.7,0.8c0.4,0.6,0.9,0.8,2.4,0.8c1.5,0,2,0.2,2.4,0.8c0.4,0.6,0.9,0.8,2.4,0.8s2,0.2,2.4,0.8  c0.4,0.6,0.9,0.8,2.4,0.8c1.4,0,2.1,0.2,2.6,0.8c0.6,0.6,1.2,0.8,3.2,0.8c2.2,0,2.6,0.1,2.8,0.8c0.2,0.7,0.6,0.8,3.4,0.9  c3.9,0.1,3.9,0.1,4.3,0.5c0.2,0.2,0.1,0.2-0.2,0.1c-0.3-0.2-0.5,0-0.5,0.3c0,0.5,0.6,0.6,3,0.6c2.4,0,3.2,0.2,4.2,0.8  c1.3,1,2.7,0.9,2.5-0.2c-0.1-0.4,0.1-0.7,0.3-0.7c0.3,0,0.4,0.3,0.3,0.8c-0.2,0.8,0,0.8,3.4,0.8c2.8,0,3.6,0.1,3.6,0.6  c0,1,1.4,1,23.9,1c21.8,0,22.1,0,22.1-0.8c0-0.4,0.2-0.8,0.4-0.8c0.2,0,0.4,0.4,0.2,0.8c-0.2,0.7,0,0.8,0.9,0.8  c1.7,0,2.9-0.4,2.9-1c0-0.4,0.8-0.6,3.6-0.6c3.4,0,3.6,0,3.4-0.8c-0.1-0.5,0-0.8,0.3-0.8c0.3,0,0.4,0.3,0.3,0.7  c-0.2,1,1.2,1.1,2.5,0.2c0.9-0.7,1.7-0.8,4.2-0.8c2.5,0,3-0.1,3-0.6c0-0.4-0.2-0.5-0.5-0.3c-0.3,0.2-0.4,0.1-0.2-0.1  c0.4-0.5,0.4-0.5,4.3-0.5c2.9,0,3.3-0.1,3.4-0.9c0.2-0.7,0.5-0.8,2.8-0.8c2.1,0,2.7-0.2,3.2-0.8c0.5-0.6,1.2-0.8,2.6-0.8  c1.5,0,2-0.2,2.4-0.8c0.4-0.6,0.9-0.8,2.4-0.8c1.5,0,2-0.2,2.4-0.8c0.4-0.6,0.9-0.8,2.4-0.8c1.5,0,2-0.2,2.4-0.8  c0.3-0.5,0.9-0.8,1.7-0.8c0.7,0,1.6-0.3,2-0.8c0.5-0.4,1.4-0.8,2.2-0.9c1.5-0.1,2.5-0.7,2.1-1.2c-0.1-0.2,0.3-0.4,1-0.4  c0.7,0,1.5-0.3,1.9-0.8c0.4-0.4,1.2-0.8,1.8-0.8c0.7,0,1.3-0.3,1.6-0.8c0.3-0.5,0.9-0.8,1.6-0.8s1.3-0.3,1.6-0.8  c0.3-0.5,0.9-0.8,1.6-0.8c0.7,0,1.3-0.3,1.6-0.8c0.3-0.4,0.9-0.8,1.4-0.8c0.5,0,1.2-0.3,1.6-0.8c0.4-0.4,1.3-0.9,2-1  c0.7-0.2,1.3-0.5,1.3-0.8c0-0.3,0.4-0.6,0.8-0.6c0.5,0,0.9-0.3,1-0.8c0.2-0.6,0.5-0.8,1.6-0.8c1.1,0,1.4-0.2,1.6-0.8  c0.1-0.4,0.5-0.8,1-0.8c0.4,0,1.1-0.4,1.6-0.8s1.1-0.8,1.4-0.8c0.4,0,0.7-0.4,0.8-0.8c0.1-0.4,0.5-0.8,1-0.8c0.4,0,1.1-0.4,1.6-0.8  s1.1-0.8,1.4-0.8c0.4,0,0.7-0.3,0.8-0.8c0.1-0.4,0.5-0.9,1-1c0.4-0.1,0.8-0.5,0.8-0.8c0-0.4,0.4-0.6,1.2-0.6c0.7,0,1.4-0.3,1.7-0.7  c0.3-0.4,0.8-0.8,1.2-1c0.4-0.1,0.7-0.5,0.7-0.8s0.4-0.7,0.8-0.8c0.4-0.1,0.8-0.5,0.8-0.8c0-0.4,0.3-0.6,0.9-0.6  c0.5,0,1.7-0.7,2.6-1.6c0.9-0.9,2-1.7,2.3-1.8c0.3-0.1,0.6-0.5,0.6-0.8c0-0.3,0.4-0.7,0.8-0.8c0.4-0.1,0.8-0.5,0.8-0.8  s0.4-0.7,0.8-0.8c0.4-0.1,0.8-0.5,0.8-0.8c0-0.3,0.4-0.7,0.8-0.8c0.4-0.1,0.8-0.5,0.8-0.8c0-0.3,0.4-0.7,0.8-0.8s0.8-0.5,0.8-0.8  c0-0.3,0.4-0.7,0.8-0.8s0.8-0.5,0.8-0.8c0-0.4,0.3-0.6,0.7-0.6c0.9,0,2.5-1.6,2.5-2.5c0-0.3,0.4-0.7,0.8-0.8  c0.4-0.1,0.8-0.5,0.8-0.8c0-0.3,0.4-0.7,0.8-0.8s0.8-0.5,0.8-0.8c0-0.3,0.4-0.7,0.8-0.8s0.8-0.5,0.8-0.8c0-0.3,0.4-0.7,0.8-0.8  c0.4-0.1,0.8-0.5,0.8-0.8s0.4-0.7,0.8-0.8c0.4-0.1,0.8-0.5,0.8-0.8c0-0.4,0.3-0.6,0.6-0.6c0.3,0,0.7-0.3,0.9-0.7  c0.1-0.4,0.9-1.4,1.8-2.3c0.9-0.9,1.5-2,1.5-2.5c0-0.6,0.2-0.9,0.8-0.9c0.5,0,0.8-0.3,0.8-0.8c0-0.5,0.3-0.8,0.6-0.8  c0.3,0,0.7-0.3,0.9-0.7c0.1-0.4,0.6-0.9,1-1.2c0.4-0.3,0.7-0.8,0.7-1.2s0.4-0.9,0.8-1.3c0.4-0.3,0.8-0.9,0.8-1.2  c0-0.4,0.4-0.8,0.8-0.9c0.4-0.1,0.8-0.5,0.8-0.8c0-0.4,0.4-1,0.8-1.4s0.8-1.1,0.8-1.6c0-0.4,0.4-0.8,0.8-1c0.4-0.1,0.8-0.5,0.8-0.8  c0-0.4,0.4-1,0.8-1.4s0.8-1.1,0.8-1.6c0-0.4,0.4-0.8,0.8-1c0.5-0.1,0.8-0.5,0.8-1.2c0-0.6,0.1-1,0.3-1c0.2,0,0.6-0.5,0.9-1.1  c0.3-0.6,0.9-1.3,1.3-1.6c0.4-0.3,0.7-1,0.7-1.6c0-0.6,0.3-1.3,0.8-1.6c0.5-0.3,0.8-0.9,0.8-1.6s0.3-1.3,0.8-1.6  c0.5-0.3,0.8-0.9,0.8-1.6c0-0.7,0.3-1.3,0.8-1.6c0.5-0.3,0.8-0.9,0.8-1.6c0-0.8,0.2-1.2,0.8-1.4c0.6-0.2,0.8-0.5,0.8-1.6  c0-1.1,0.2-1.4,0.8-1.6c0.6-0.2,0.8-0.5,0.8-1.6c0-0.9,0.3-1.6,0.8-2c0.4-0.4,0.8-1.1,0.8-1.7s0.4-1.4,0.8-1.8  c0.7-0.7,1.1-2.5,0.8-3.8c0-0.2,0.1-0.3,0.2-0.1c0.6,0.6,1.4-0.6,1.4-2.1c0-1.1,0.2-1.6,0.6-1.6c0.7,0,1-1.2,1-3.3  c0-1,0.2-1.5,0.6-1.5c0.6,0,1-1.2,1-3c0-0.7,0.3-1.5,0.8-2c0.6-0.6,0.8-1.2,0.8-3.3c0-1.9,0.1-2.5,0.6-2.5c0.7,0,1-1.2,1-3.7  c0-1,0.2-1.9,0.4-1.9c0.6,0,1.2-2.4,1.2-5.1c0-1.4,0.2-2.5,0.3-2.5c0.8,0,1.3-2.2,1.3-5.5c0-3,0.1-3.6,0.8-4.2  c1.3-1.1,1.3-55.5,0-56.6c-0.7-0.6-0.8-1.2-0.8-4.2c0-3.2-0.5-5.5-1.2-5.5c-0.2,0-0.4-1.6-0.4-3.6c-0.1-2.8-0.3-3.7-0.8-4.1  c-0.5-0.3-0.7-1.3-0.8-3.2c-0.1-2-0.4-2.9-0.9-3.2c-0.4-0.3-0.7-1-0.7-1.9c0-2-0.4-3.2-1-3.2c-0.4,0-0.6-0.6-0.6-2.2  c0-1.8-0.2-2.3-0.8-2.7c-0.5-0.3-0.8-0.9-0.8-1.7c0-1.8-0.4-3-1-3c-0.4,0-0.6-0.5-0.6-1.6c0-1.5-0.8-2.7-1.4-2.1  c-0.2,0.2-0.3,0.1-0.2-0.1c0.3-1.5-0.1-3.5-0.8-4.1c-0.4-0.4-0.8-1.2-0.8-1.8c0-0.7-0.3-1.3-0.8-1.6c-0.6-0.4-0.8-0.9-0.8-2  c0-1-0.3-1.8-0.8-2.3c-0.4-0.4-0.8-1.1-0.8-1.5c0-0.4-0.4-1-0.8-1.3c-0.4-0.3-0.8-1-0.8-1.6c0-0.6-0.4-1.3-0.8-1.6  c-0.4-0.3-0.8-1-0.8-1.6c0-0.6-0.4-1.3-0.8-1.6c-0.4-0.3-0.8-0.9-0.8-1.3c0-0.4-0.4-0.9-0.8-1.2c-0.5-0.3-0.8-0.9-0.8-1.8  c0-1-0.2-1.4-0.8-1.5c-0.4-0.1-0.8-0.5-0.8-1c0-0.4-0.4-1.1-0.8-1.6c-0.4-0.4-0.8-1.1-0.8-1.4c0-0.4-0.4-0.7-0.8-0.8  c-0.6-0.1-0.8-0.5-0.8-1.4c0-0.7-0.3-1.3-0.8-1.7c-0.4-0.3-0.8-0.8-0.8-1.2c0-0.4-0.3-0.7-0.8-0.7c-0.6,0-0.8-0.3-0.8-1.2  c0-0.7-0.3-1.4-0.7-1.7c-0.4-0.3-0.8-0.8-1-1.2c-0.1-0.4-0.5-0.7-0.9-0.7c-0.3,0-0.6-0.3-0.6-0.7s-0.4-1.1-0.8-1.5  s-0.8-1.1-0.8-1.5c0-0.4-0.3-0.9-0.8-1c-0.4-0.1-0.9-0.5-1-1c-0.1-0.4-0.5-0.8-0.8-0.8c-0.4,0-0.7-0.5-0.9-1.4  c-0.1-0.8-0.5-1.4-0.8-1.4c-0.3,0-0.7-0.4-0.8-0.8c-0.1-0.4-0.4-0.8-0.6-0.8c-0.2,0-0.6-0.5-0.8-1c-0.2-0.6-0.6-1-0.9-1  c-0.3,0-0.7-0.4-0.8-0.8c-0.1-0.4-0.5-0.8-0.8-0.8c-0.3,0-0.7-0.4-0.8-0.8s-0.5-0.8-0.8-0.8c-0.3,0-0.7-0.4-0.8-0.8  c-0.1-0.4-0.5-0.8-0.8-0.8c-0.4,0-0.6-0.3-0.6-0.8c0-1-10.9-12-12-12c-0.4,0-0.8-0.4-1-0.8c-0.1-0.4-0.5-0.8-0.8-0.8  c-0.3,0-0.7-0.4-0.8-0.8c-0.1-0.4-0.5-0.8-0.8-0.8s-0.7-0.4-0.8-0.8c-0.1-0.4-0.5-0.8-0.8-0.8c-0.4,0-0.6-0.3-0.6-0.6  c0-0.3-0.5-0.8-1-1c-0.6-0.2-1-0.6-1-0.8c0-0.2-0.4-0.5-0.8-0.6s-0.8-0.5-0.8-0.8c0-0.3-0.6-0.7-1.4-0.8c-0.9-0.2-1.4-0.5-1.4-0.9  c0-0.3-0.3-0.7-0.8-0.8c-0.4-0.1-0.9-0.5-1-1c-0.1-0.4-0.5-0.8-0.8-0.8c-0.4,0-1-0.4-1.4-0.8c-0.4-0.4-1.2-0.8-1.6-0.8  c-0.5,0-0.8-0.3-0.8-0.6c0-0.3-0.3-0.7-0.7-0.9c-0.4-0.1-0.9-0.6-1.2-1c-0.3-0.4-1-0.7-1.7-0.7c-0.8,0-1.2-0.2-1.2-0.6  c0-0.3-0.3-0.7-0.7-0.9c-0.4-0.1-0.9-0.6-1.2-1c-0.3-0.4-1-0.7-1.7-0.7c-0.8,0-1.2-0.2-1.3-0.8c-0.1-0.5-0.5-0.8-1-0.8  c-0.4,0-1.1-0.4-1.5-0.8c-0.4-0.4-1-0.8-1.4-0.8c-0.4,0-0.8-0.4-0.9-0.8c-0.2-0.6-0.5-0.8-1.5-0.8c-0.8,0-1.5-0.3-1.9-0.8  c-0.4-0.4-1.2-0.8-1.7-0.9c-0.6,0-1-0.2-0.9-0.3c0.4-0.4-0.7-1.3-1.6-1.3c-0.5,0-1.1-0.4-1.4-0.8c-0.3-0.4-1-0.8-1.6-0.8  s-1.3-0.4-1.6-0.8c-0.3-0.4-1-0.8-1.5-0.8c-0.5,0-1.3-0.4-1.8-0.8c-0.5-0.4-1.4-0.8-2.1-0.8c-0.8,0-1.4-0.3-1.7-0.8  c-0.3-0.5-0.9-0.8-1.6-0.8s-1.3-0.3-1.6-0.8c-0.4-0.6-0.9-0.8-2.4-0.8c-1.6,0-2-0.1-2.2-0.8c-0.2-0.6-0.5-0.8-1.8-0.8  c-1.1,0-1.6-0.2-1.6-0.6c0-0.6-1.2-1-3-1c-0.8,0-1.4-0.3-1.7-0.8c-0.4-0.6-0.9-0.8-2.7-0.8c-1.6,0-2.2-0.1-2.2-0.6  c0-0.6-1.3-1-4.1-1.1c-1,0-1.8-0.2-1.7-0.3c0.6-0.6-0.9-1.3-3-1.3c-1.7,0-2.5-0.2-3-0.7c-0.5-0.5-1.5-0.7-4.2-0.8  c-1.9-0.1-3.5-0.3-3.5-0.4c0-0.7-2.3-1.2-5.6-1.2c-2.8,0-3.6-0.1-3.6-0.6c0-0.3-0.4-0.7-0.9-0.8C227.3,7.2,174.2,7.2,173.1,7.5   M212.4,22.8c7.1,0.7,15,1.6,16.8,2c1,0.2,3,0.6,4.4,0.8c9.4,1.5,23.7,5.8,35,10.5c4.6,1.9,12.5,5.7,16.6,8c1.6,0.9,3.6,2,4.4,2.4  c4.4,2.3,20.4,13.4,22.2,15.4c0.2,0.2,1.8,1.6,3.6,3c9.5,7.6,23.2,23,31.7,35.4c2.6,3.8,4.8,7.1,5,7.7c0.2,0.3,0.7,1.3,1.3,2.2  c0.5,0.9,1.2,2.1,1.6,2.8c0.3,0.7,1.6,3,2.8,5.1c1.2,2.1,2.2,4.1,2.2,4.4s0.2,0.9,0.5,1.3c0.3,0.4,1.1,2.1,1.8,3.8s1.4,3.4,1.6,3.8  c3.7,8.3,9.1,26.6,10.4,35c0.2,1.6,0.6,3.6,0.8,4.4c0.4,1.6,1.4,10.1,2,16.6c0.5,5.2,0.4,18.6,0,23.4c-0.7,7.5-1.6,15.1-2.2,17.8  c-2,9.9-2.4,11.9-3.1,14.6c-1,3.9-5.3,17.3-6.3,19.6c-2.9,6.9-6.4,14.5-7.5,16.4c-0.7,1.3-1.3,2.4-1.3,2.5c0,0.9-8,13.7-12.2,19.6  c-0.8,1.1-1.7,2.5-2.1,3c-0.4,0.6-0.9,1.2-1.2,1.5c-0.3,0.3-1.3,1.6-2.4,3c-5.5,7.2-17,19-24.9,25.6c-9.1,7.5-16.8,12.8-26,18  c-2.5,1.4-7.1,3.8-10.2,5.3c-3.1,1.5-5.9,2.9-6.4,3.1c-0.4,0.2-1.2,0.6-1.8,0.7c-0.6,0.2-2.4,0.9-4,1.6c-4.4,1.9-16.4,5.7-21.4,6.9  c-10.9,2.6-11.5,2.7-12,1.6c-0.5-1.3-0.7-15-0.2-19.4c0.9-8.5,4.3-22.1,7.2-28.5c0.2-0.4,1.3-2.9,2.4-5.4c3-6.9,7-14.6,10.6-20.2  c1.8-2.8,7.6-11.6,7.8-11.8c0.1-0.1,0.8-1,1.4-2c1-1.5,6.2-8.4,7.9-10.4c0.3-0.3,1.8-2.2,3.4-4.2c8.9-10.9,22.2-24.8,38-39.9  c16.2-15.4,22.8-23.6,27.8-34.1c0.6-1.3,1.3-2.7,1.5-3.1c0.2-0.4,0.8-2.4,1.4-4.6c5.9-22.6-10.8-40.5-47.7-51.3  c-9.4-2.7-13.2-4-20.1-6.5c-2.5-0.9-5.3-1.9-6.2-2.2c-0.9-0.3-2-0.7-2.4-0.9c-0.4-0.2-3-1.2-5.6-2.2c-8.1-3.1-7.3-2.6-9.6-7.1  c-7-14.1-26.4-20.2-45.6-14.3c-3.9,1.2-3.5,1.2-10-0.2c-14.9-3.1-32.8-2.5-44.4,1.6c-0.9,0.3-3.2,1.1-5.2,1.7  c-2,0.6-4.1,1.3-4.6,1.6c-0.6,0.3-1.3,0.5-1.6,0.5c-0.3,0-1.3,0.4-2.2,0.8c-0.9,0.4-1.8,0.8-2,0.8c-0.2,0-1.2,0.4-2.2,0.9  c-1,0.5-2.4,1.1-3,1.4c-29.1,13-44,30.5-49.8,58.6c-1.5,7.2-1.9,11.5-3.8,34.7c-0.5,6.5-1.2,13.1-2.3,22.7  c-1.1,10.1-1.6,14.1-1.8,14.7c-0.1,0.4-0.6,2.8-1,5.4c-1.5,9.3-3.8,19.2-5.7,25.3c-1.7,5.3-4.4,13.4-4.7,14.2  c-0.2,0.4-1,2.5-1.8,4.6c-2.4,6.4-2.8,6.4-6.4,1c-8.4-12.7-16.1-29.5-20.4-44.6c-0.6-2.1-1.4-5-1.9-6.4c-0.4-1.4-0.8-2.9-0.8-3.2  c0-0.4-0.3-1.7-0.6-3c-0.8-2.9-1.6-7.7-2.4-14c-0.3-2.6-0.8-6.3-1.1-8.2c-0.7-4.6-0.7-26.2,0-30.8c0.3-1.9,0.8-5.6,1.1-8.2  c0.7-5.5,1.5-10.5,2.4-14c0.3-1.3,1-4,1.5-6c1.7-6.9,5.6-18.7,8-24c0.2-0.4,0.9-2.1,1.6-3.8c4.5-10.5,12.4-24,20.4-34.7  c12.6-16.8,31.7-34.2,48.5-44.2c1.3-0.8,3-1.8,3.8-2.3c4.6-2.7,15.9-8.4,19.9-10c0.7-0.3,2.1-0.8,3.3-1.3c5.8-2.3,9.6-3.7,15.1-5.4  c3.3-1,15-3.8,17.8-4.3c1.4-0.2,3.4-0.6,4.4-0.8c1.8-0.4,10.5-1.4,16.4-2C193.3,22.4,208.1,22.4,212.4,22.8 M227.2,103.2  c0.8,0.2,2.3,0.6,3.4,0.8c2,0.4,2.3,0.5,6.8,2.6c5.1,2.4,11.8,9.8,11.8,13c0,1,0.2,1-4-1c-2-1-3.7-1.8-3.9-1.8  c-0.1,0-0.8-0.2-1.5-0.6c-7.1-3.1-27.7-9.7-32.7-10.5c-2.1-0.3-3.1-0.8-2.5-1.1c0.4-0.2,7-1.6,9.5-2  C216.2,102.3,225.7,102.7,227.2,103.2 M185.6,122.5c25.1,8.2,32.9,39.4,14.3,57.5c-25.9,25.2-67.8-0.8-56.9-35.3  C148.5,127.4,168.6,116.9,185.6,122.5 M169.5,132.4c-17.9,4.7-24,27.6-10.8,40.6c11.9,11.7,31.7,8.1,39-7  C206.4,147.8,189.2,127.3,169.5,132.4 M180.2,132.7c7.4,1.4,13,5.6,17.1,13.2c4.8,8.9,1.8,21.3-7,28.8c-6.4,5.5-18.5,6.3-26.5,1.7  c-11.5-6.6-15.2-22.4-7.8-33.5C161.4,134.6,170.3,130.9,180.2,132.7 M301.6,182.9c4.9,2.6,5.6,8.9,1.4,12.6  c-4,3.5-10.8,1.4-12.2-3.9C289.1,185.2,295.8,179.8,301.6,182.9 M326.2,210.6c-1.6,1.1-2.6,2-3.3,2.6c-0.4,0.4-1.1,0.9-1.7,1.2  c-0.5,0.3-1.2,0.7-1.4,0.9c-0.8,0.7-3.5,2.3-3.7,2.3c-0.1,0-0.5,0.3-0.9,0.6c-1.6,1.4-18.1,9.4-24,11.6c-4.6,1.7-6.2,2.3-10.2,3.7  c-2.4,0.8-5.3,1.7-6.4,2c-1.1,0.3-3.8,1-6,1.6c-21.8,5.7-41.1,5-54.7-2.2c-4.5-2.4-6-3.4-7.9-5.3c-2.2-2.2-1.3-2.4,2.5-0.6  c12.8,6.1,28,7.6,50.5,4.9c5-0.6,6.4-0.9,14.4-2.7c7.4-1.7,18.3-5.2,26.8-8.5c6-2.4,7.2-2.9,12.8-5.7c3.5-1.7,4.3-2.1,5.7-2.9  c0.4-0.2,1.1-0.6,1.7-0.9c0.6-0.3,1.4-0.8,2-1.2s1.3-0.7,1.7-0.7c0.4,0,0.8-0.3,0.9-0.6c0.1-0.3,0.6-0.6,1.1-0.6  C327,210,327,210,326.2,210.6 M147.1,383.8c0,0.3-0.2,0.6-0.5,0.6c-0.3,0-0.7-0.3-1-0.6c-0.4-0.5-0.3-0.6,0.5-0.6  C146.7,383.2,147.1,383.4,147.1,383.8 M256,383.8c-0.3,0.3-0.7,0.6-0.8,0.6c-0.2,0-0.4-0.3-0.4-0.6c0-0.3,0.4-0.6,0.8-0.6  C256.4,383.2,256.4,383.3,256,383.8"></path>	<path id="path1" class="st1" d="M210.7,32.8c-9.3,1.3-8.6,1.8,5.9,4.8c6.6,1.4,15.9,3.8,21.8,5.5c1.4,0.4,3.6,1.1,4.8,1.4  c1.2,0.4,2.6,0.8,3,1s1.6,0.6,2.6,0.9c2.4,0.8,5.2,1.8,6.2,2.2c0.4,0.2,2.1,0.8,3.6,1.4s3.6,1.4,4.6,1.8c1,0.4,2.7,1.1,3.8,1.5  c9.2,3.7,14.4,6,19.2,8.5c12.1,6.3,24.1,17.1,33,29.6c1.9,2.7,6.9,10.1,7.5,11.2c0.3,0.6,0.9,1.5,1.3,2.1  c4.3,6.6,12.3,21.8,15.1,28.3c0.6,1.4,1.4,3.3,1.8,4.2c0.4,0.9,1.2,2.9,1.8,4.4c0.6,1.5,1.2,3.2,1.4,3.6c0.2,0.4,0.7,1.6,1,2.6  c1.6,4.3,1.8,5,2.2,5.8c0.5,1.1,3.3,9.7,4.6,14c2.4,8.2,2.9,9.9,4.3,16.2c1.6,6.9,2.3,10.3,2.9,13.7c0.3,1.9,0.8,3.9,1,4.4  c0.2,0.5,0.5,2.3,0.6,3.9c0.5,5.5,2.2,5.6,2.9,0.2c1.8-12.9,0.6-32.3-2.8-47.2c-1.7-7.4-2-8.7-2.4-9.4c-0.2-0.4-0.6-1.4-0.8-2.3  c-0.5-2-1.9-6-2.6-7.6c-0.3-0.7-0.6-1.5-0.6-1.7s-0.2-1-0.6-1.5s-1.8-3.6-3.3-6.7c-2.5-5.2-6.6-12.6-8.2-15c-0.4-0.6-1.5-2.4-2.6-4  c-5.4-8.4-16.7-21.1-26.8-30c-2.5-2.2-9.3-8-12.4-10.6c-1.3-1.1-2.5-2.1-2.6-2.2c-0.8-0.8-17.5-14.2-20-16  c-5.8-4.2-11.5-7.6-16.2-9.8c-1.3-0.6-2.7-1.3-3.1-1.5c-2.7-1.4-15.1-5.3-18.5-5.8c-1.1-0.2-2.3-0.4-2.6-0.6  C238.4,32.7,218.6,31.7,210.7,32.8 M171,122c-10.3,1.6-20.5,8.5-24.6,16.7c-0.7,1.4-1.4,2.6-1.5,2.7c-1.6,1.6-3.1,11-2.7,16.8  c0.4,6.7,1.5,10,5.4,16c4.4,6.9,11.5,11.9,20.2,14.3c2.1,0.6,13.9,0.6,16,0c21.5-5.9,32.9-31.5,21.8-48.9c-0.2-0.3-0.6-1.1-1-1.8  c-1.5-3.2-7.4-9-11-11c-0.8-0.4-1.7-0.9-2-1.1C186.9,122.7,177.2,121,171,122 M181,132c21.3,5.4,26.1,32.1,7.9,44.4  c-0.9,0.6-1.8,1.2-2,1.2c-0.2,0-0.9,0.3-1.7,0.8c-3,1.6-9,2.3-13.4,1.5c-26.1-4.7-27.5-41-1.8-47.7C174.3,131,177,131,181,132   M294.2,183.9c-4.2,3-4,8.9,0.2,11.7c4.5,3,10.8-0.6,10.8-6.1C305.2,184.1,298.5,180.8,294.2,183.9"></path>	<path id="path2" class="st2" d="M188.8,22.8c-5.9,0.5-14.6,1.6-16.4,2c-1,0.2-3,0.6-4.4,0.8c-2.8,0.5-14.5,3.3-17.8,4.3  c-5.5,1.7-9.3,3-15.1,5.4c-1.2,0.5-2.6,1.1-3.3,1.3c-4,1.6-15.3,7.2-19.9,10c-0.8,0.5-2.5,1.5-3.8,2.3  c-28.5,17-55.9,48.3-68.9,78.8c-0.7,1.7-1.4,3.4-1.6,3.8c-2.4,5.3-6.3,17.1-8,24c-0.5,2-1.1,4.7-1.5,6c-0.8,3.5-1.7,8.5-2.4,14  c-0.3,2.6-0.8,6.3-1.1,8.2c-0.7,4.6-0.7,26.2,0,30.8c0.3,1.9,0.8,5.6,1.1,8.2c0.8,6.3,1.6,11,2.4,14c0.3,1.3,0.6,2.7,0.6,3  c0,0.4,0.3,1.8,0.8,3.2c0.4,1.4,1.2,4.3,1.9,6.4c4.4,15.1,12,31.9,20.4,44.6c3.6,5.4,3.9,5.3,6.4-1c0.8-2.1,1.6-4.2,1.8-4.6  c0.4-0.8,3.1-8.9,4.7-14.2c1.9-6.1,4.1-16,5.7-25.3c0.4-2.6,0.9-5,1-5.4c0.2-0.6,0.7-4.5,1.8-14.7c1.1-9.6,1.7-16.2,2.3-22.7  c1.9-23.2,2.3-27.5,3.8-34.7c5.8-28,20.7-45.6,49.8-58.6c0.7-0.3,2-0.9,3-1.4c1-0.5,2-0.8,2.2-0.9c0.2,0,1.1-0.4,2-0.8  c0.9-0.4,1.9-0.8,2.2-0.8c0.3,0,1.1-0.3,1.6-0.5c0.6-0.3,2.6-1,4.6-1.6c2-0.6,4.3-1.4,5.2-1.7c11.6-4.1,29.5-4.8,44.4-1.6  c6.5,1.4,6.1,1.4,10,0.2c19.2-5.8,38.6,0.3,45.6,14.3c2.2,4.6,1.5,4,9.6,7.1c2.6,1,5.2,2,5.6,2.2c0.4,0.2,1.5,0.6,2.4,0.9  c0.9,0.3,3.7,1.3,6.2,2.2c6.9,2.5,10.7,3.7,20.1,6.5c36.9,10.8,53.6,28.7,47.7,51.3c-0.6,2.2-1.2,4.2-1.4,4.6  c-0.2,0.4-0.9,1.7-1.5,3.1c-4.9,10.6-11.5,18.7-27.8,34.1c-15.8,15.1-29.1,29-38,39.9c-1.6,2-3.2,3.9-3.4,4.2  c-1.7,2.1-6.9,8.9-7.9,10.4c-0.7,1-1.3,1.9-1.4,2c-0.2,0.2-6,9-7.8,11.8c-3.6,5.6-7.6,13.3-10.6,20.2c-1.1,2.5-2.2,5-2.4,5.4  c-2.9,6.4-6.4,20-7.2,28.5c-0.4,4.4-0.3,18.2,0.2,19.4c0.5,1.1,1.1,1.1,12-1.6c5-1.2,17-5.1,21.4-6.9c1.6-0.7,3.5-1.4,4-1.6  c0.6-0.2,1.4-0.5,1.8-0.7c0.4-0.2,3.3-1.6,6.4-3.1c9.9-4.8,18.1-9.6,25.4-14.9c13.7-10,27.4-22.9,35.7-33.9c1-1.4,2.1-2.7,2.4-3  c0.3-0.3,0.8-1,1.2-1.5c0.4-0.5,1.3-1.9,2.1-3c4.2-5.9,12.2-18.7,12.2-19.6c0-0.1,0.6-1.3,1.3-2.5c1.1-1.9,4.6-9.6,7.5-16.4  c1-2.3,5.3-15.7,6.3-19.6c0.7-2.7,1.1-4.7,3.1-14.6c0.5-2.8,1.5-10.3,2.2-17.8c0.5-4.8,0.5-18.2,0-23.4c-0.6-6.4-1.6-15-2-16.6  c-0.2-0.8-0.6-2.8-0.8-4.4c-1.3-8.4-6.7-26.7-10.4-35c-0.2-0.4-0.9-2.1-1.6-3.8s-1.5-3.4-1.8-3.8c-0.3-0.4-0.5-1-0.5-1.3  s-1-2.3-2.2-4.4c-1.2-2.1-2.5-4.4-2.8-5.1c-0.3-0.7-1-1.9-1.6-2.8c-0.5-0.9-1.1-1.9-1.3-2.2c-0.3-0.6-2.5-3.9-5-7.7  c-8.5-12.5-22.2-27.8-31.7-35.4c-1.8-1.4-3.4-2.8-3.6-3c-1.8-1.9-17.8-13-22.2-15.4c-0.8-0.4-2.8-1.5-4.4-2.4  c-4.1-2.3-12-6.1-16.6-8c-6.9-2.8-10.4-4.1-18.4-6.5c-3.7-1.1-13.7-3.5-16.6-4c-1.4-0.2-3.4-0.6-4.4-0.8c-1.8-0.4-9.7-1.3-16.8-2  C208.1,22.4,193.3,22.4,188.8,22.8 M232.3,33c4.7,0.6,8.9,1.2,9.2,1.3c0.3,0.2,1.5,0.4,2.6,0.6c3.4,0.5,15.8,4.4,18.5,5.8  c0.4,0.2,1.8,0.9,3.1,1.5c4.7,2.2,10.3,5.6,16.2,9.8c2.5,1.8,19.2,15.2,20,16c0.1,0.1,1.3,1.1,2.6,2.2c1.3,1.1,4.2,3.5,6.4,5.4  c14.6,12.4,26.2,24.9,32.8,35.2c1.1,1.6,2.2,3.4,2.6,4c1.6,2.4,5.7,9.8,8.2,15c1.5,3.1,3,6.1,3.3,6.7s0.6,1.3,0.6,1.5  s0.3,1,0.6,1.7c0.7,1.6,2.1,5.6,2.6,7.6c0.2,0.9,0.6,1.9,0.8,2.3c0.8,1.4,3.4,13.3,4.6,21c1.9,12.1,1.6,37-0.6,39.1  c-1,1-1.4,0.2-1.8-3.7c-0.2-1.6-0.4-3.4-0.6-3.9c-0.2-0.5-0.6-2.5-1-4.4c-0.6-3.4-1.3-6.8-2.9-13.7c-1.5-6.3-1.9-8-4.3-16.2  c-1.3-4.3-4.1-12.9-4.6-14c-0.3-0.8-0.6-1.5-2.2-5.8c-0.4-1-0.8-2.2-1-2.6c-0.2-0.4-0.8-2.1-1.4-3.6c-0.6-1.5-1.4-3.5-1.8-4.4  c-0.4-0.9-1.2-2.8-1.8-4.2c-2.8-6.5-10.8-21.7-15.1-28.3c-0.4-0.6-1-1.6-1.3-2.1c-0.6-1-5.5-8.5-7.5-11.2  c-8.8-12.5-20.8-23.3-33-29.6c-4.8-2.5-10-4.8-19.2-8.5c-1.1-0.4-2.8-1.1-3.8-1.5c-1-0.4-3.1-1.2-4.6-1.8s-3.2-1.2-3.6-1.4  c-1-0.4-3.8-1.4-6.2-2.2c-1-0.3-2.2-0.7-2.6-0.9s-1.8-0.7-3-1c-1.2-0.4-3.4-1-4.8-1.4c-5.8-1.8-15.2-4.1-21.8-5.5  c-14.5-3.1-15.2-3.6-5.9-4.8C217.9,31.8,222.5,31.9,232.3,33 M169.6,121.6c-18.7,3.2-31.5,22.1-27.6,40.6  c8.5,40.5,67.9,34.7,67.8-6.6C209.8,133.7,191.2,117.9,169.6,121.6 M184.5,122.8c2.8,0.8,5.8,2,7.1,2.8c0.3,0.2,1.2,0.7,2,1.1  c3.6,2,9.5,7.9,11,11c0.3,0.7,0.8,1.5,1,1.8c11.1,17.4-0.3,43-21.8,48.9c-2.1,0.6-13.9,0.6-16,0c-10.1-2.8-17.3-8.5-22.5-18.1  c-0.6-1.1-1.9-4.7-2.5-6.8c-1.5-5.8-0.2-20,2.1-22.2c0.1-0.1,0.8-1.3,1.5-2.7C152.7,126.1,170.6,118.7,184.5,122.8 M174.3,131.5  c0.7,0.1,2,0.1,2.8,0c0.8-0.1,0.2-0.2-1.3-0.2C174.3,131.3,173.6,131.4,174.3,131.5 M158.2,138.9l-1.6,1.7l1.7-1.6  c1.6-1.5,1.9-1.8,1.6-1.8C159.8,137.2,159.1,138,158.2,138.9 M174.9,180.3c0.6,0.1,1.5,0.1,2,0c0.5-0.1,0-0.2-1.1-0.2  C174.7,180.1,174.3,180.2,174.9,180.3 M295.7,182.3c-3.6,1-5.9,5.5-4.9,9.3c1.4,5.2,8.2,7.4,12.2,3.9  C309.3,190,303.8,180,295.7,182.3 M302,183.8c7.3,5.4-0.1,16.8-7.6,11.8c-2.9-1.9-4.3-7.5-2.4-9.8  C294.6,182.7,299.2,181.8,302,183.8 M145.6,383.8c0.3,0.3,0.7,0.6,1,0.6c0.3,0,0.5-0.3,0.5-0.6c0-0.4-0.4-0.6-1-0.6  C145.3,383.2,145.2,383.3,145.6,383.8 M254.8,383.8c0,0.3,0.2,0.6,0.4,0.6c0.2,0,0.6-0.3,0.8-0.6c0.4-0.5,0.4-0.6-0.4-0.6  C255.2,383.2,254.8,383.5,254.8,383.8 M168.1,388.8c0,0.4,0.2,0.7,0.4,0.6c0.4-0.3,0.4-1.3-0.1-1.3  C168.2,388,168.1,388.3,168.1,388.8 M232.8,388.6c0,0.9,0.6,1.1,0.7,0.2c0-0.4-0.1-0.8-0.3-0.8C233,388,232.8,388.3,232.8,388.6   M221.6,390.4c0,0.5,0.2,0.7,0.4,0.6s0.4-0.5,0.4-0.8c0-0.3-0.2-0.6-0.4-0.6S221.6,390,221.6,390.4"></path>	<path id="path3" class="st2" d="M170.6,132.8c-23.4,5.1-25,38-2.3,45.6c2.6,0.9,10,1.2,12.7,0.6c2.8-0.6,7.5-2.8,9.3-4.3  c8.8-7.5,11.8-20,7-28.8C191.5,135.2,181.7,130.4,170.6,132.8 M324.9,210.6c-0.1,0.3-0.5,0.6-0.9,0.6c-0.4,0-1.1,0.3-1.7,0.7  s-1.4,0.9-2,1.2c-0.5,0.3-1.3,0.7-1.7,0.9c-1.4,0.8-2.2,1.2-5.7,2.9c-5.6,2.8-6.8,3.3-12.8,5.7c-8.5,3.4-19.4,6.9-26.8,8.5  c-8,1.8-9.4,2.1-14.4,2.7c-22.5,2.7-37.7,1.2-50.5-4.9c-7.7-3.7-3,1.5,5.3,5.9c13.7,7.1,32.9,7.9,54.7,2.2c2.2-0.6,4.9-1.3,6-1.6  c1.1-0.3,4-1.2,6.4-2c4-1.3,5.6-1.9,10.2-3.7c5.9-2.2,22.5-10.2,24-11.6c0.3-0.3,0.7-0.6,0.9-0.6c0.3,0,2.9-1.7,3.7-2.3  c0.2-0.2,0.9-0.6,1.4-0.9c0.5-0.3,1.3-0.8,1.7-1.2c0.7-0.6,1.8-1.5,3.3-2.6c0.8-0.6,0.8-0.6-0.1-0.6  C325.6,210,325.1,210.3,324.9,210.6 M150.2,385.2c-0.3,0.4,0.4,0.9,0.7,0.5c0.4-0.4,0.3-0.9-0.1-0.9  C150.6,384.8,150.3,385,150.2,385.2 M250.5,385.2c0.1,0.3,0.3,0.5,0.4,0.5c0.5,0,0.4-0.6-0.1-0.8  C250.5,384.8,250.4,384.9,250.5,385.2"></path>	<path id="path4" class="st3" d="M163.5,9.1c-0.4,0.1-0.7,0.5-0.7,0.9c0,0.4,0.1,0.5,0.3,0.2c0.2-0.2,0.7-0.6,1.1-0.9  C165,8.8,164.8,8.7,163.5,9.1 M237.4,9.2c0.4,0.3,0.9,0.7,1.1,0.9c0.2,0.3,0.3,0.2,0.3-0.3c0-0.4-0.2-0.7-0.4-0.7s-0.7-0.1-1.1-0.2  C236.7,8.8,236.7,8.8,237.4,9.2 M129.8,19.2c-0.6,0.7-0.6,0.8-0.1,0.8c0.3,0,0.7-0.4,0.8-0.8c0.1-0.4,0.2-0.8,0.1-0.8  C130.6,18.4,130.2,18.8,129.8,19.2 M271.1,19.2c0.1,0.4,0.5,0.8,0.8,0.8c0.5,0,0.5-0.1-0.1-0.8c-0.4-0.4-0.8-0.8-0.8-0.8  C270.9,18.4,271,18.8,271.1,19.2 M40,91.4c-0.4,0.5-0.4,0.6,0.2,0.6c0.4,0,0.6-0.3,0.6-0.6s-0.1-0.6-0.2-0.6  C40.6,90.8,40.3,91.1,40,91.4 M360.8,91.4c0,0.3,0.3,0.6,0.6,0.6c0.5,0,0.6-0.1,0.2-0.6c-0.3-0.3-0.6-0.6-0.6-0.6  C360.9,90.8,360.8,91.1,360.8,91.4 M214.2,102.6c-2.5,0.4-9.2,1.8-9.5,2c-0.6,0.3,0.5,0.8,2.5,1.1c5,0.8,25.6,7.4,32.7,10.5  c0.7,0.3,1.4,0.6,1.5,0.6c0.1,0,1.9,0.8,3.9,1.8c4.2,2.1,4,2,4,1c0-3.2-6.7-10.6-11.8-13c-4.4-2.1-4.8-2.2-6.8-2.6  c-1.1-0.2-2.6-0.6-3.4-0.8C225.7,102.7,216.2,102.3,214.2,102.6 M30.2,107.2c-0.4,0.4-0.6,0.8-0.4,0.8c0.4,0,1.6-1.2,1.3-1.4  C31,106.5,30.6,106.8,30.2,107.2 M370.4,106.6c0,0.4,1.2,1.6,1.4,1.3c0.1-0.1-0.2-0.5-0.6-0.9C370.8,106.6,370.4,106.4,370.4,106.6   M27,113.6c-0.4,0.4-0.6,0.8-0.4,0.8c0.4,0,1.6-1.2,1.3-1.4C27.8,112.9,27.4,113.2,27,113.6 M373.6,113c0,0.4,1.2,1.6,1.4,1.3  c0.1-0.1-0.2-0.5-0.6-0.9C374,113,373.6,112.8,373.6,113 M15.3,142.2c-0.1,0.3-0.1,0.7,0,0.9c0.1,0.1,0.2,0,0.2-0.4  s0.3-0.7,0.7-0.8c0.7-0.2,0.7-0.2,0-0.2C15.9,141.6,15.5,141.9,15.3,142.2 M385.3,141.8c0.4,0.1,0.8,0.5,0.9,0.9  c0.1,0.5,0.2,0.5,0.1-0.1c0-0.5-0.4-0.8-0.9-0.9C384.8,141.7,384.8,141.7,385.3,141.8 M11.4,160c-0.5,0.7-1,2-0.7,2  c0.5,0,1.4-1.3,1.3-1.9C11.8,159.6,11.7,159.6,11.4,160 M389.6,160.2c0,0.6,0.9,1.8,1.3,1.8c0.4,0-0.2-1.6-0.8-2  C389.7,159.6,389.6,159.6,389.6,160.2 M10.7,237.2c0.1,0.4,0.5,1,0.8,1.2c0.8,0.6,0.8-0.7,0-1.5C10.6,236.2,10.4,236.3,10.7,237.2   M390.1,237c-0.3,0.3-0.5,0.9-0.5,1.2c0,0.9,1,0.1,1.3-1C391.2,236.3,390.8,236.2,390.1,237 M13.6,249.6c0,0.4,0.3,1,0.8,1.4  c0.7,0.7,0.8,0.7,0.8,0.1c0-0.4-0.3-0.7-0.6-0.7s-0.7-0.3-0.8-0.7C13.7,249.1,13.7,249.1,13.6,249.6 M387.6,249.7  c0,0.4-0.3,0.7-0.6,0.7s-0.6,0.3-0.6,0.7c0,0.6,0.1,0.6,0.8-0.2c0.5-0.5,0.8-1.1,0.6-1.4C387.7,249.2,387.7,249.2,387.6,249.7   M15.2,255.1c0,0.2,0.4,0.7,0.8,1.1c0.4,0.4,0.8,0.6,0.8,0.4c0-0.2-0.4-0.7-0.8-1.1C15.6,255,15.2,254.8,15.2,255.1 M18.5,265.4  c0,0.5,0.4,0.8,0.9,0.9c0.6,0.1,0.6,0,0.1-0.1c-0.4-0.1-0.8-0.5-0.9-0.9C18.5,264.8,18.5,264.8,18.5,265.4 M382.8,265.3  c0,0.4-0.3,0.7-0.7,0.8c-0.7,0.2-0.7,0.2,0,0.2c0.7,0,1.4-1,0.9-1.4C382.9,264.8,382.8,265,382.8,265.3 M34.4,298.3  c0,0.2,0.4,0.7,0.8,1.1c0.4,0.4,0.8,0.6,0.8,0.4c0-0.2-0.4-0.7-0.8-1.1C34.8,298.2,34.4,298,34.4,298.3 M366.3,298.9  c-0.9,1.1-0.6,1.4,0.4,0.4c0.4-0.4,0.6-0.9,0.5-1C367,298.1,366.6,298.4,366.3,298.9 M126.2,377.6c0.4,0.4,0.8,0.7,0.9,0.6  c0.2-0.2-0.9-1.4-1.3-1.4C125.6,376.8,125.8,377.2,126.2,377.6 M274.9,377.4c-0.3,0.3-0.5,0.7-0.4,0.8c0.1,0.1,0.5-0.2,0.9-0.6  c0.4-0.4,0.6-0.8,0.4-0.8C275.6,376.8,275.2,377.1,274.9,377.4"></path></g></svg>