<svg xmlns="http://www.w3.org/2000/svg" xmlns:xlink="http://www.w3.org/1999/xlink" id="Warstwa_1" x="0px" y="0px" viewBox="0 0 400 400" style="enable-background:new 0 0 400 400;" xml:space="preserve"><style type="text/css">	.st0{fill-rule:evenodd;clip-rule:evenodd;fill:#4ECB7D;}	.st1{fill-rule:evenodd;clip-rule:evenodd;fill:#4ECB7D;}</style><title>image2vector-1-svg</title><g id="svgg">	<path id="path0" class="st0" d="M275.2,80.4c-1.9,0.1-4.1,0.6-5,0.9c-0.9,0.4-2.6,0.7-3.8,0.9c-1.2,0.1-2.7,0.6-3.4,1  c-0.7,0.4-2.2,0.9-3.5,1c-1.3,0.2-2.5,0.5-2.8,0.8c-0.3,0.3-1.5,0.8-2.7,1.2c-1.2,0.3-2.5,0.9-2.8,1.2c-0.3,0.3-1.2,0.6-2,0.8  c-0.8,0.1-1.9,0.5-2.4,0.9c-0.5,0.3-2.9,0.9-5.4,1.2c-2.4,0.3-4.9,0.8-5.6,1.2c-0.6,0.3-2.2,0.8-3.4,1c-1.3,0.2-2.7,0.8-3.2,1.2  c-0.5,0.4-1.6,0.9-2.4,1s-1.7,0.6-1.9,1c-0.3,0.4-0.9,0.8-1.5,0.9c-0.6,0.1-1,0.4-1,0.6c0,0.2-0.7,0.8-1.6,1.2  c-0.9,0.4-1.6,1-1.6,1.2c0,0.2-0.9,1.3-2,2.3c-1.1,1.1-2.3,2.6-2.6,3.4c-0.3,0.8-0.8,1.5-1,1.5c-0.2,0-0.4,0.2-0.4,0.5  c0,0.3-0.5,1.3-1.2,2.3c-0.7,1-1.2,2.1-1.2,2.4c0,0.3-0.4,1.4-1,2.4c-0.5,1-1.1,2.4-1.2,3.2c-0.2,0.8-0.5,1.8-0.9,2.3  c-0.3,0.5-0.8,1.8-1,3c-0.3,1.2-0.8,2.5-1.2,3c-0.4,0.5-0.9,1.8-1,2.8c-0.2,1-0.6,2.5-1,3.3c-0.4,0.8-0.8,2-1,2.7  c-0.1,0.7-0.6,1.7-1,2.2c-0.4,0.5-0.9,1.8-1,2.9c-0.2,1.1-0.6,2.6-1,3.3c-0.4,0.7-0.9,2-1,2.8s-0.6,2-1,2.5s-0.8,1.8-1,2.8  s-0.6,2.3-1,3c-0.4,0.7-0.9,2.1-1.2,3.2c-0.3,1.1-0.7,2.2-0.9,2.5c-0.2,0.3-0.6,1.5-1,2.8c-0.3,1.3-0.9,2.6-1.2,2.9  c-0.3,0.4-0.8,1.5-1,2.6c-0.2,1.1-0.8,2.7-1.2,3.7c-0.4,0.9-0.8,2-0.8,2.3c0,0.3-0.4,1.3-0.8,2.1c-0.4,0.9-1,2.5-1.2,3.6  c-0.2,1.1-0.8,2.5-1.1,3.2s-0.8,1.8-1,2.6c-0.2,0.8-0.6,1.9-1,2.6c-0.4,0.7-0.8,1.9-1,2.8c-0.2,0.9-0.6,2.1-1,2.8  c-0.4,0.7-0.9,1.9-1,2.8c-0.2,0.9-0.6,2.1-1,2.6c-0.4,0.6-0.9,1.8-1,2.8c-0.1,1-0.6,2.1-1,2.6c-0.4,0.4-0.8,1.6-1,2.6  c-0.1,1-0.6,2.4-1,3.2c-0.4,0.8-0.9,2.2-1.2,3.1c-0.3,0.9-0.7,2-1.1,2.3c-0.3,0.3-0.8,1.6-1,2.9c-0.2,1.2-0.6,2.6-1,2.9  c-0.3,0.4-0.8,1.5-1.1,2.6c-0.3,1.1-0.7,2.4-1,2.8c-0.3,0.4-0.8,1.8-1.1,3.1c-0.4,1.2-0.9,2.5-1.3,2.8c-0.3,0.3-0.6,1.1-0.6,1.8  c0,0.7-0.4,2.1-0.8,3.1c-0.4,1-1.1,2.7-1.4,3.8c-0.3,1.1-0.8,2.2-1.1,2.5c-0.3,0.3-0.6,1.4-0.8,2.4c-0.2,1.1-0.5,2.3-0.8,2.7  c-0.3,0.4-0.8,1.8-1.2,3.1c-0.4,1.2-0.9,2.4-1.2,2.7c-0.3,0.3-0.7,1.3-0.8,2.3c-0.2,1.1-0.7,2.2-1.3,2.9c-0.5,0.6-1,1.2-1,1.4  c0,0.2-0.9,1.4-2,2.7c-1.1,1.3-2,2.6-2,2.7c0,0.3-1.6,2.1-4.1,4.4c-0.5,0.5-1.2,0.9-1.4,0.9c-0.3,0-0.6,0.3-0.7,0.6  c-0.1,0.3-0.8,0.9-1.5,1.3c-1.2,0.6-2.3,1.4-4.6,3.3c-0.5,0.4-1.1,0.8-1.4,0.8s-1,0.5-1.8,1.2c-0.8,0.7-1.6,1.2-1.9,1.2  s-0.7,0.4-1,0.8c-0.3,0.4-0.8,0.8-1.1,0.8s-1,0.4-1.4,1c-0.5,0.5-1.3,1.1-1.9,1.2c-0.6,0.1-1.4,0.6-1.9,1c-1,0.9-4.8,3.2-5.2,3.2  c-0.2,0-0.8,0.5-1.5,1c-0.7,0.6-1.4,1-1.7,1c-0.3,0-1.1,0.4-1.8,1c-0.7,0.5-1.9,1.1-2.5,1.2c-0.6,0.1-1.3,0.5-1.4,0.8  c-0.1,0.3-1,0.8-1.9,1c-0.9,0.3-1.9,0.7-2.3,1c-0.3,0.3-1.3,0.7-2.2,1c-0.9,0.3-1.9,0.8-2.2,1.1c-0.4,0.3-1.7,0.8-3,1  c-1.3,0.3-2.6,0.7-3,1c-0.3,0.3-1.5,0.7-2.6,1c-1.1,0.3-3.1,0.8-4.5,1.2c-7,2-27.6,2.1-34.5,0.1c-1.2-0.3-3.3-0.9-4.6-1.2  c-1.3-0.3-2.7-0.8-3-1.1c-0.4-0.3-1.5-0.7-2.6-0.8c-1.1-0.1-2.4-0.6-3-1c-0.6-0.4-1.7-0.9-2.6-1c-0.9-0.1-2.4-0.7-3.4-1.1  c-3.2-1.5-15.4-1.3-18.6,0.4c-2.8,1.4-5.6,4.2-6.2,6.2c-0.2,0.8-0.7,1.9-1.1,2.4c-0.9,1.3-0.9,6.9,0,8.7c0.3,0.6,0.8,2.3,1.1,3.7  c0.3,1.4,0.7,2.9,1,3.4c0.3,0.5,0.8,1.8,1,3c0.3,1.2,0.8,2.7,1.2,3.4c0.4,0.7,0.9,1.7,1,2.2c0.7,2.5,8,10.1,11.2,11.7  c0.8,0.4,1.4,0.9,1.4,1.1c0,0.2,0.4,0.5,0.8,0.6c0.4,0.1,2,1.1,3.5,2.1c1.5,1,3.4,2.2,4.2,2.6c0.8,0.4,1.5,1,1.5,1.2  c0,0.2,0.3,0.4,0.7,0.4s1.2,0.4,1.7,0.9c0.5,0.5,2.4,1.6,4.1,2.5c1.7,0.9,3.2,1.8,3.3,2.1c0.1,0.3,0.5,0.5,0.9,0.5  c0.4,0,1.4,0.5,2.2,1c0.8,0.6,2.2,1.3,3.1,1.6c0.8,0.3,1.5,0.8,1.5,0.9s0.7,0.5,1.6,0.8c0.9,0.3,1.7,0.7,1.8,1  c0.1,0.3,0.8,0.7,1.5,0.8c0.7,0.1,2,0.7,2.9,1.2s2.1,1,2.6,1.2c0.6,0.2,1.4,0.6,2,1.1c0.5,0.4,1.3,0.7,1.6,0.7s1.4,0.4,2.2,0.8  c0.9,0.4,2.2,1,3,1.2c0.8,0.3,2,0.8,2.6,1.2c0.7,0.4,1.9,0.8,2.8,1s2.2,0.6,3,1c1.5,0.8,8.8,3.2,9.7,3.2c0.3,0,1.1,0.3,1.9,0.7  c0.8,0.4,2.5,0.9,3.8,1s3.2,0.6,4.2,1c1,0.4,3.2,0.9,4.8,1.2c1.7,0.3,3.6,0.7,4.3,1c0.7,0.3,3.6,0.7,6.4,1c2.8,0.3,6,0.8,7,1.1  c2.8,1,38.6,1,42.4,0c1.4-0.4,4.7-0.9,7.3-1.1c2.6-0.2,5.3-0.7,6.1-1c0.8-0.3,2.6-0.8,4.2-1s3.4-0.7,4-1c0.6-0.3,2.5-0.8,4.1-1  c1.6-0.2,3.4-0.7,4.1-1.1c0.6-0.3,2.1-0.9,3.2-1.1c3.3-0.9,7.1-2.2,8.7-3c0.8-0.4,2-0.8,2.8-1c0.8-0.2,2.2-0.7,3.1-1.3  c1-0.5,2.1-1,2.4-1c0.3,0,1.2-0.3,1.8-0.8c0.7-0.4,2-1,2.9-1.3c0.9-0.3,1.9-0.7,2.2-1c0.3-0.3,1.3-0.7,2.1-1c0.8-0.3,1.7-0.7,1.9-1  c0.3-0.3,1.2-0.8,2.1-1c0.9-0.2,2-0.8,2.5-1.2c0.4-0.4,1.3-0.9,1.9-1c0.6-0.1,1.3-0.5,1.5-0.8c0.2-0.3,1.1-0.8,1.9-1  c0.8-0.3,1.8-0.8,2.3-1.2c0.4-0.4,1.3-0.8,1.8-1s1.3-0.5,1.6-0.8c0.3-0.3,2-1.3,3.7-2.2c1.7-0.9,3.5-1.9,4-2.3c2.2-1.5,4.5-3,4.8-3  c0.2,0,0.9-0.5,1.6-1c0.7-0.5,1.5-1,1.7-1s0.9-0.4,1.4-0.9c0.9-0.8,2.1-1.6,4.7-3.1c0.6-0.3,1.3-0.8,1.6-1.1c0.9-0.8,3.3-2.4,4.3-3  c0.5-0.3,1.4-0.9,1.9-1.3c0.5-0.4,1.3-1.1,1.8-1.5c0.5-0.4,1.7-1.3,2.7-2.1c1-0.8,1.9-1.4,2.1-1.4s0.8-0.5,1.2-1c0.4-0.5,1-1,1.4-1  c0.3,0,0.6-0.1,0.6-0.4c0-0.2,1.8-1.7,3.9-3.5c2.1-1.7,4.1-3.4,4.4-3.9c0.3-0.4,0.7-0.7,0.9-0.7c0.5,0,9.2-8.4,14.4-14  c1.7-1.8,3.4-3.6,3.8-4.1c0.8-0.9,5.1-6,6.7-8c0.5-0.6,1.3-1.5,1.8-2c0.5-0.5,0.9-1.1,0.9-1.3s0.9-1.5,2-2.8c1.1-1.3,2-2.6,2-2.8  c0-0.2,0.5-0.9,1-1.4c0.5-0.5,1-1.1,1-1.4c0-0.2,0.8-1.5,1.8-2.8c1-1.3,2.1-3.1,2.6-4c0.4-0.9,1.4-2.4,2-3.4c0.7-1,1.6-2.7,2.1-3.7  s1-1.9,1.2-1.9c0.2,0,0.4-0.5,0.6-1.2c0.1-0.6,0.6-1.5,1-1.8c0.4-0.4,0.9-1.3,1-2c0.1-0.7,0.7-1.9,1.2-2.7c0.6-0.7,1-1.5,1-1.8  c0-0.2,0.4-1.2,0.9-2.2c0.5-1,1.1-2.3,1.2-3c0.2-0.6,0.6-1.7,1.1-2.3c0.4-0.6,0.8-1.4,0.8-1.9c0-0.4,0.4-1.6,0.9-2.5  c0.5-1,1.1-2.5,1.2-3.4c0.2-0.9,0.6-1.9,0.9-2.3c0.3-0.4,0.9-1.9,1.2-3.3c0.3-1.4,0.8-3.1,1.1-3.7c0.3-0.6,0.7-1.9,0.8-2.9  c0.1-1,0.6-2.5,1-3.4c0.4-0.9,0.9-3,1.1-4.6c0.2-1.7,0.7-3.7,1-4.4c0.4-0.8,0.8-3,1.1-5c0.2-2,0.6-4.2,0.8-5  c0.2-0.8,0.8-4.6,1.2-8.6c0.4-3.9,0.9-7.7,1.2-8.4c0.4-1.2,0.9-10.7,1.5-27.1c0.3-7.6-0.7-21.9-1.6-23.4c-0.3-0.5-0.8-1.8-1.2-3  c-0.3-1.2-0.8-2.4-1-2.6c-0.2-0.3-0.6-1.2-0.8-2.2s-0.9-2.4-1.4-3.2c-0.5-0.8-1-1.7-1-2s-0.3-1-0.7-1.7c-0.7-1-2.1-3.2-3.4-5.3  c-1.1-1.7-14.6-16-15.2-16c-0.4,0-0.4,4.9,0,7.2c1.5,8,2,10.1,4.1,16c1.6,4.6,2.3,6.1,4,9.4c4,7.5,3.2,11.4-2.3,11.4  c-1.4,0-4.2-2.6-4.2-4c0-2.3-5.9-9.2-9.9-11.4c-4.4-2.5-15.2-3.9-19.7-2.6c-0.8,0.2-3.4,0.7-5.9,1c-2.5,0.3-5,0.8-5.6,1.1  s-2,0.8-3.1,1c-1.1,0.3-2.4,0.7-2.8,1c-1.5,1.1-3.3,0.7-4-0.9c-0.3-0.8-0.8-2-1.1-2.7s-0.7-1.6-0.8-2.2  c-3.4-11.3-10.9-15.2-26.7-13.8c-13.7,1.2-18.8,0.5-20.6-2.8c-2.9-5.3-0.7-9.3,6.2-11.4c1.6-0.5,2.9-1,3.1-1.2  c0.1-0.2,1.2-0.5,2.3-0.6c1.2-0.2,2.7-0.5,3.3-0.9c0.7-0.3,2.5-0.9,4.2-1.3c1.6-0.4,3.5-0.9,4.2-1.2c0.7-0.2,3.6-1.1,6.6-1.9  c3-0.8,5.9-1.7,6.5-2s1.9-0.8,2.8-1.1c2.6-0.8,5.9-2.3,8.7-3.8c1.4-0.8,3-1.6,3.5-1.9c0.6-0.3,1.5-1,2.1-1.5c0.5-0.5,1.5-1.1,2-1.4  c1-0.5,1-0.5-0.8-0.8C289,80,279.7,80,275.2,80.4z"></path>	<path id="path1" class="st1" d="M304.2,9.1c-0.7,0.1-1.9,0.4-2.8,0.7c-0.9,0.3-2.8,0.7-4.3,0.8c-1.6,0.2-3.1,0.6-3.6,1  c-0.5,0.4-1.7,0.9-2.7,1.2c-1,0.3-2.4,0.9-3.1,1.4c-0.7,0.5-1.6,0.9-1.9,0.9c-0.3,0-0.5,0.1-0.5,0.3c0,0.2-0.6,0.7-1.3,1.1  c-0.7,0.4-1.7,1.1-2.3,1.6c-3.2,2.8-5.4,5-5.9,6c-0.3,0.7-0.9,1.6-1.2,2.2c-2.6,4.3,0.8,12,6.2,14.3l2,0.9l1.9-0.9  c1.4-0.7,2.1-1.3,2.6-2.5c0.4-0.9,1.1-2.3,1.5-3c0.4-0.8,0.8-1.9,0.8-2.4c0-0.6,0.3-1.4,0.6-1.9s0.9-1.8,1.2-2.9  c1.1-3.8,7-7.8,10-6.9c0.2,0.1,1.6,0.4,3.1,0.6c1.5,0.3,3.1,0.9,3.6,1.3c0.5,0.4,1.4,1,2.1,1.3c1.6,0.6,8.5,7.4,8.8,8.7  c0.1,0.5,0.4,1,0.6,1c0.2,0,0.6,0.7,1,1.5c0.3,0.8,0.9,2.1,1.3,2.9c0.8,1.6,0.8,5.6,0.1,8.4c-0.2,1-0.7,3-1,4.4  c-0.3,1.4-0.8,3-1.2,3.5c-0.3,0.5-0.6,1.2-0.6,1.5c0,1.1-5.2,8.6-8,11.5c-1.9,2-7,6.4-7.4,6.4c-0.2,0-0.9,0.5-1.6,1.1  c-2.5,2.1-3.7,2.9-4.1,2.9c-0.2,0-0.9,0.4-1.6,1c-0.6,0.5-1.7,1.1-2.3,1.3c-1.3,0.3-2.7,1.1-4.2,2.4c-0.5,0.5-1.5,1.1-2.1,1.4  c-0.6,0.3-2.2,1.2-3.5,1.9c-2.7,1.5-6.1,3-8.7,3.8c-0.9,0.3-2.2,0.8-2.8,1.1s-3.6,1.2-6.5,2c-3,0.8-5.9,1.7-6.6,1.9  c-0.7,0.2-2.5,0.8-4.2,1.2c-1.7,0.4-3.5,1-4.2,1.3c-0.6,0.3-2.1,0.7-3.3,0.9c-1.2,0.1-2.2,0.4-2.3,0.6c-0.1,0.2-1.5,0.7-3.1,1.2  c-6.9,2.1-9,6.1-6.2,11.4c1.8,3.3,6.9,4,20.6,2.8c15.7-1.4,23.3,2.5,26.7,13.8c0.2,0.6,0.5,1.5,0.8,2.2s0.8,1.9,1.1,2.7  c0.7,1.7,2.5,2.1,4,0.9c0.4-0.3,1.7-0.8,2.8-1c1.1-0.3,2.6-0.7,3.1-1s3.1-0.8,5.6-1.1c2.5-0.3,5.1-0.8,5.9-1  c4.6-1.3,15.3,0.1,19.7,2.6c4,2.3,9.9,9.1,9.9,11.4c0,1.3,2.8,4,4.2,4c5.5,0,6.4-4,2.3-11.4c-1.8-3.3-2.6-5.1-3.9-9  c-0.8-2.3-1.7-4.9-2-5.7c-0.4-0.8-0.6-2-0.6-2.6c0-0.6-0.4-2.6-0.8-4.3c-0.4-1.7-1-5-1.2-7.4c-0.2-2.3-0.6-5.4-0.9-6.8  c-0.9-3.8-1.2-11.6-0.7-15.8c0.3-2,0.5-4.8,0.6-6.2c0.5-7.2,1.1-11.9,1.6-13.2c0.3-0.8,0.7-3.6,0.9-6.2c0.2-2.6,0.6-6.9,0.8-9.4  c0.5-5.2-0.7-17.9-1.8-19c-0.3-0.3-0.8-1.4-1.1-2.5c-0.3-1.1-0.9-2.4-1.3-2.9c-0.4-0.5-0.7-1.2-0.7-1.4s-0.5-1.2-1.2-2  c-0.6-0.9-1.2-1.7-1.2-1.8c0-0.5-4.7-5-6.3-6.1c-0.9-0.6-2.4-1.5-3.2-2.1s-2.5-1.2-3.7-1.4c-1.2-0.3-3-0.7-3.9-1  C311.3,8.8,307,8.7,304.2,9.1z"></path></g></svg>