<svg width="38" height="20" viewBox="0 0 38 20" fill="none" xmlns="http://www.w3.org/2000/svg">
<path d="M34.8334 8.0505C35.3902 8.0505 36.64 8.1605 37.3082 8.2155C37.3082 7.8525 37.234 7.4895 37.1721 7.1155C36.739 4.7395 33.9795 0.603506 27.2727 0.735506C17.2744 0.944506 17.559 9.2165 13.2651 10.2945C10.3077 11.0425 9.55288 9.4475 9.37964 8.5565C9.67631 8.57355 9.97391 8.57355 10.2706 8.5565C13.9828 8.2265 14.6882 3.05651 14.6882 3.05651C14.6882 3.05651 10.7161 3.16651 10.1592 3.19951C9.48119 3.20336 8.82488 3.4125 8.29851 3.79243C7.77214 4.17237 7.40712 4.70041 7.26365 5.28951C7.10035 4.7097 6.73453 4.19081 6.21873 3.8074C5.70292 3.42398 5.06369 3.19575 4.39284 3.15551L0 2.88051C0 2.88051 0.334103 7.8855 3.99686 8.4135C4.61557 8.5015 5.40752 8.53451 5.40752 8.53451C5.28117 9.87869 5.46515 11.2317 5.94818 12.5104C6.43121 13.7891 7.2031 14.9665 8.21646 15.9705C8.73618 15.3435 9.19403 14.8155 9.45388 14.6175C10.0353 13.9729 10.7689 13.4496 11.6028 13.0846C12.4367 12.7197 13.3505 12.522 14.2798 12.5055C15.5796 12.5303 16.8384 12.9148 17.8807 13.6055L19.1181 14.4635L18.3014 15.6405C17.7933 16.4694 17.2357 17.2736 16.6309 18.0495C16.307 18.4486 15.938 18.8172 15.5296 19.1495C17.2559 19.452 19.0058 19.6359 20.7639 19.6995C22.2735 11.7135 26.7406 8.0505 34.8334 8.0505ZM25.9116 3.88151C27.3314 4.24868 28.5754 5.02197 29.4506 6.0815L27.9038 6.98351C27.256 6.26033 26.3685 5.7369 25.3671 5.48751L25.9116 3.88151Z" fill="white"/>
<path d="M34.8331 9.68945C27.6932 9.68945 24.0304 12.7035 22.6445 19.7435C24.4388 19.7435 27.3467 19.7435 27.3467 19.7435C32.2964 19.5455 37.2461 16.2235 37.3698 9.90945C36.7264 9.81045 35.3281 9.68945 34.8331 9.68945Z" fill="white"/>
<path d="M14.2191 14.1436C15.105 14.1517 15.9674 14.3971 16.694 14.8476C16.694 14.8476 15.8402 16.2336 15.1472 17.0476C14.458 17.8638 13.5565 18.5194 12.5199 18.9581C11.4833 19.3968 10.3425 19.6056 9.19523 19.5666C8.66357 19.571 8.13281 19.5267 7.61133 19.4346C7.61133 19.4346 10.3089 16.1346 10.7667 15.6616C11.1782 15.1922 11.7008 14.8089 12.2974 14.539C12.894 14.2691 13.5501 14.1191 14.2191 14.0996" fill="white"/>
</svg>
